<?xml version="1.0" encoding="UTF-8" standalone="no"?>
<svg
   width="30.48mm"
   height="128.5mm"
   viewBox="0 0 30.479998 128.5"
   version="1.1"
   id="svg8"
   inkscape:version="1.2.1 (9c6d41e, 2022-07-14)"
   sodipodi:docname="Broadcast.svg"
   inkscape:export-filename="/Users/grough/Desktop/VCV Junk/Lilac Progress 20201015-2.png"
   inkscape:export-xdpi="300"
   inkscape:export-ydpi="300"
   xmlns:inkscape="http://www.inkscape.org/namespaces/inkscape"
   xmlns:sodipodi="http://sodipodi.sourceforge.net/DTD/sodipodi-0.dtd"
   xmlns="http://www.w3.org/2000/svg"
   xmlns:svg="http://www.w3.org/2000/svg"
   xmlns:rdf="http://www.w3.org/1999/02/22-rdf-syntax-ns#"
   xmlns:cc="http://creativecommons.org/ns#"
   xmlns:dc="http://purl.org/dc/elements/1.1/">
  <defs
     id="defs2">
    <inkscape:perspective
       sodipodi:type="inkscape:persp3d"
       inkscape:vp_x="0 : 64.25 : 1"
       inkscape:vp_y="0 : 1000 : 0"
       inkscape:vp_z="30.479998 : 64.25 : 1"
       inkscape:persp3d-origin="15.239998 : 42.833333 : 1"
       id="perspective3344" />
  </defs>
  <sodipodi:namedview
     id="base"
     pagecolor="#303030"
     bordercolor="#666666"
     borderopacity="1.0"
     inkscape:pageopacity="0"
     inkscape:pageshadow="2"
     inkscape:zoom="1.2991058"
     inkscape:cx="24.247448"
     inkscape:cy="269.03121"
     inkscape:document-units="mm"
     inkscape:current-layer="layer2"
     inkscape:document-rotation="0"
     showgrid="false"
     inkscape:window-width="1280"
     inkscape:window-height="1051"
     inkscape:window-x="448"
     inkscape:window-y="38"
     inkscape:window-maximized="0"
     inkscape:snap-page="true"
     inkscape:snap-grids="true"
     inkscape:snap-to-guides="true"
     inkscape:snap-others="true"
     inkscape:object-nodes="false"
     inkscape:snap-nodes="true"
     inkscape:snap-global="true"
     showguides="false"
     inkscape:guide-bbox="true"
     inkscape:snap-bbox="true"
     inkscape:showpageshadow="false"
     showborder="true"
     inkscape:lockguides="false"
     inkscape:pagecheckerboard="0"
     inkscape:deskcolor="#303030">
    <sodipodi:guide
       position="23.6,30.137244"
       orientation="-1,0"
       id="guide1308"
       inkscape:locked="false"
       inkscape:label=""
       inkscape:color="rgb(0,0,255)" />
    <sodipodi:guide
       position="1.8,59.075039"
       orientation="-1,0"
       id="guide1310"
       inkscape:locked="false"
       inkscape:label=""
       inkscape:color="rgb(0,0,255)" />
    <inkscape:grid
       type="xygrid"
       id="grid3645"
       units="mm"
       spacingx="5.08"
       spacingy="32.625"
       empcolor="#3f3fff"
       empopacity="0.1254902"
       originx="0"
       originy="0" />
    <sodipodi:guide
       position="33.699139,10.9"
       orientation="0,1"
       id="guide4744"
       inkscape:label=""
       inkscape:locked="false"
       inkscape:color="rgb(0,0,255)" />
    <sodipodi:guide
       position="-3.2586517,27.278131"
       orientation="0,-1"
       id="guide6243"
       inkscape:locked="false" />
  </sodipodi:namedview>
  <metadata
     id="metadata5">
    <rdf:RDF>
      <cc:Work
         rdf:about="">
        <dc:format>image/svg+xml</dc:format>
        <dc:type
           rdf:resource="http://purl.org/dc/dcmitype/StillImage" />
      </cc:Work>
    </rdf:RDF>
  </metadata>
  <g
     inkscape:groupmode="layer"
     id="layer6"
     inkscape:label="Panel"
     style="display:inline">
    <rect
       style="display:inline;opacity:1;mix-blend-mode:normal;fill:#dad5d5;fill-opacity:1;fill-rule:evenodd;stroke-width:0.374177"
       id="rect28"
       width="30.48"
       height="128.5"
       x="0"
       y="6.6613381e-15" />
  </g>
  <g
     inkscape:groupmode="layer"
     id="layer2"
     inkscape:label="Panel graphics"
     style="display:inline">
    <circle
       style="display:inline;mix-blend-mode:normal;fill:#d7b7bf;fill-opacity:1;stroke-width:0.91392;stroke-miterlimit:4;stroke-dasharray:none"
       id="circle3672"
       cx="21.96748"
       cy="-68.954971"
       transform="scale(1,-1)"
       r="0" />
    <circle
       style="display:inline;mix-blend-mode:normal;fill:#d7b7bf;fill-opacity:1;stroke-width:0.91425"
       id="circle3727"
       cx="21.950937"
       cy="88.485794"
       r="0" />
    <circle
       style="display:inline;mix-blend-mode:normal;fill:#d7b7bf;fill-opacity:1;stroke-width:0.91392;stroke-miterlimit:4;stroke-dasharray:none"
       id="circle3831"
       cx="21.967365"
       cy="-26.40794"
       transform="scale(1,-1)"
       r="0" />
    <circle
       style="display:inline;mix-blend-mode:normal;fill:#d7b7bf;fill-opacity:1;stroke-width:0.91392;stroke-miterlimit:4;stroke-dasharray:none"
       id="ellipse5996"
       cx="21.96748"
       cy="-68.954971"
       transform="scale(1,-1)"
       r="0" />
    <circle
       style="display:inline;mix-blend-mode:normal;fill:#d7b7bf;fill-opacity:1;stroke-width:0.91392;stroke-miterlimit:4;stroke-dasharray:none"
       id="ellipse5998"
       cx="21.96748"
       cy="-68.954971"
       transform="scale(1,-1)"
       r="0" />
    <circle
       style="display:inline;mix-blend-mode:normal;fill:#d7b7bf;fill-opacity:1;stroke-width:0.91392;stroke-miterlimit:4;stroke-dasharray:none"
       id="ellipse6000"
       cx="21.96748"
       cy="-63.663303"
       transform="scale(1,-1)"
       r="0" />
    <g
       id="g3371"
       transform="matrix(0.92400001,0,0,0.92400001,0.83322542,8.4160066)"
       style="display:inline;mix-blend-mode:normal;fill:#d7b7bf;fill-opacity:1">
      <g
         id="g2422"
         transform="matrix(1.1618277,0,0,1.1618277,-2.1847927,-20.500906)"
         style="fill:#d7b7bf;fill-opacity:1">
        <path
           id="path2410"
           style="display:inline;fill:#d7b7bf;fill-opacity:1;stroke-width:0.0131509"
           d="m 16.520736,121.57901 c -0.01732,0 -0.08726,0.0184 -0.155505,0.0412 -0.137907,0.046 -0.194703,0.0924 -0.289823,0.23706 -0.05137,0.0782 -0.06018,0.11007 -0.104735,0.38538 -0.02537,0.1568 -0.04146,0.19108 -0.08955,0.19108 -0.03125,0 -0.120663,0.052 -0.13472,0.0783 -0.0077,0.014 -0.01361,0.0377 -0.01361,0.0527 0,0.0389 0.09788,0.14024 0.144312,0.14951 0.05137,0.0102 0.07179,0.0499 0.05438,0.10475 -0.0077,0.0231 -0.01346,0.0908 -0.01361,0.1503 -1.47e-4,0.066 -0.01084,0.15043 -0.02762,0.21587 -0.0171,0.067 -0.02452,0.12528 -0.01958,0.15471 0.0046,0.026 -7.73e-4,0.10583 -0.01161,0.1775 -0.02097,0.13905 -0.01679,0.16183 0.0352,0.19828 0.03644,0.0256 0.174551,0.0144 0.210275,-0.0168 0.03597,-0.0314 0.0646,-0.1691 0.08915,-0.43015 0.0077,-0.0795 0.02297,-0.18007 0.03434,-0.22346 0.01137,-0.0434 0.02035,-0.0879 0.02003,-0.0987 -0.0016,-0.0504 0.01516,-0.12069 0.0328,-0.13832 0.02275,-0.0228 0.225135,-0.027 0.329399,-0.007 0.03474,0.006 0.116393,0.0192 0.18149,0.028 0.13851,0.0188 0.305093,0.0587 0.329801,0.0792 0.02893,0.024 0.04564,0.14143 0.04958,0.34818 0.0046,0.23072 0.02614,0.30228 0.115133,0.37378 0.04556,0.0367 0.05887,0.0408 0.103938,0.0332 0.06645,-0.0112 0.163497,-0.0857 0.182287,-0.13951 0.01903,-0.0547 0.01895,-0.1078 -7.73e-4,-0.12753 -0.0087,-0.009 -0.02019,-0.0467 -0.02522,-0.0848 -0.0046,-0.038 -0.01825,-0.0926 -0.02955,-0.12153 -0.01563,-0.0397 -0.01911,-0.08 -0.01361,-0.1643 0.0046,-0.0671 0.0016,-0.13556 -0.0077,-0.17109 -0.0084,-0.0326 -0.02004,-0.0798 -0.0256,-0.10514 -0.0088,-0.0395 -0.03806,-0.10067 -0.125521,-0.26304 -0.0097,-0.0181 -0.03613,-0.0927 -0.0588,-0.1659 -0.0533,-0.17249 -0.143399,-0.35493 -0.203468,-0.41216 -0.02614,-0.0249 -0.04758,-0.0531 -0.04758,-0.0627 0,-0.0296 -0.105586,-0.11764 -0.183092,-0.1523 -0.117004,-0.0523 -0.29673,-0.11433 -0.331,-0.11433 z m -0.0256,0.3306 c 0.05415,-0.004 0.129212,0.0151 0.19229,0.0511 0.108433,0.062 0.17336,0.16081 0.235455,0.35778 0.04077,0.1294 0.03752,0.17511 -0.01401,0.19469 -0.04146,0.0158 -0.0492,0.0152 -0.130317,-0.008 -0.04262,-0.0123 -0.119016,-0.0182 -0.217076,-0.0168 -0.161323,0.003 -0.257773,-0.0165 -0.269036,-0.0532 -0.0069,-0.0237 0.01137,-0.20014 0.03117,-0.29344 0.01702,-0.0802 0.08449,-0.1987 0.125521,-0.22066 0.01215,-0.006 0.02792,-0.0103 0.04595,-0.0116 z" />
        <path
           style="display:inline;fill:#d7b7bf;fill-opacity:1;stroke-width:0.0131509"
           d="m 16.022068,120.81791 c -0.0039,-0.0105 -0.0069,-0.008 -0.0079,0.008 -5.57e-4,0.0138 0.0023,0.0216 0.0069,0.0173 0.0046,-0.004 0.0046,-0.0157 7.74e-4,-0.0252 z"
           id="path2412" />
        <path
           style="display:inline;fill:#d7b7bf;fill-opacity:1;stroke-width:0.014294"
           d="m 18.500858,123.53883 c -0.03144,-0.0122 -0.08223,-0.0416 -0.112948,-0.0653 -0.03069,-0.0237 -0.07963,-0.0514 -0.10877,-0.0614 -0.08538,-0.0294 -0.186781,-0.0948 -0.230295,-0.14862 -0.02607,-0.0322 -0.05347,-0.0981 -0.07736,-0.18568 -0.03102,-0.11402 -0.03767,-0.17233 -0.04137,-0.36444 -0.0033,-0.15317 0.0018,-0.25232 0.01387,-0.30018 0.02473,-0.0963 0.08357,-0.22511 0.114648,-0.25072 0.01395,-0.0114 0.04658,-0.054 0.07264,-0.0947 0.02607,-0.0406 0.06836,-0.0885 0.09412,-0.10642 0.02573,-0.0179 0.07576,-0.0579 0.111115,-0.0886 0.05776,-0.0504 0.157984,-0.10416 0.361312,-0.19405 0.07214,-0.0319 0.196343,-0.0403 0.256773,-0.0174 0.01866,0.007 0.07105,0.0583 0.116397,0.11373 0.08248,0.10083 0.08248,0.10083 0.07248,0.18134 -0.01176,0.0941 -0.07509,0.18918 -0.140368,0.21084 -0.06752,0.0223 -0.146557,-0.01 -0.18024,-0.0726 -0.05735,-0.10764 -0.05735,-0.10762 -0.150829,-0.0717 -0.06189,0.0236 -0.104489,0.0544 -0.169023,0.12191 -0.04751,0.0496 -0.09952,0.11471 -0.115664,0.1446 -0.09048,0.16747 -0.10539,0.20067 -0.114429,0.25485 -0.0051,0.0328 -0.0033,0.0822 0.0042,0.11004 0.0085,0.0308 0.009,0.0725 0.0018,0.10676 -0.009,0.0398 -0.0067,0.0803 0.009,0.13929 0.02841,0.10926 0.06752,0.16997 0.124342,0.19342 0.02548,0.0104 0.09017,0.0461 0.143765,0.0791 0.06163,0.038 0.122719,0.0635 0.166291,0.0695 0.09566,0.0131 0.395836,-0.0183 0.465265,-0.0486 0.03144,-0.0138 0.07467,-0.0294 0.09611,-0.0349 0.02144,-0.004 0.06323,-0.0263 0.09292,-0.0463 0.04095,-0.0278 0.06432,-0.0343 0.09685,-0.0275 0.02354,0.004 0.07383,0.0142 0.111603,0.0205 0.09756,0.0162 0.167216,0.085 0.166913,0.16473 -1.59e-4,0.0319 -0.0051,0.0651 -0.01068,0.0738 -0.02262,0.0343 -0.163465,0.091 -0.347095,0.13959 -0.168097,0.0445 -0.226443,0.0526 -0.463868,0.0655 -0.334221,0.018 -0.357596,0.0175 -0.428823,-0.0102 z"
           id="path2414" />
        <path
           style="display:inline;fill:#d7b7bf;fill-opacity:1;stroke-width:0.0131509"
           d="m 13.045297,123.78274 c -0.05353,-0.0535 -0.0632,-0.135 -0.08731,-0.73954 -0.0039,-0.0976 -0.01253,-0.21896 -0.01926,-0.26959 -0.03767,-0.28553 -0.0062,-0.99891 0.05508,-1.23893 0.0077,-0.0305 0.01029,-0.0705 0.0054,-0.0889 -0.01191,-0.0475 0.03411,-0.10436 0.111527,-0.13766 0.07856,-0.0338 0.105052,-0.034 0.146896,-7.7e-4 0.01818,0.0143 0.04858,0.032 0.06753,0.0392 0.0321,0.0122 0.03442,0.0187 0.03442,0.0963 0,0.0457 -0.0054,0.0888 -0.01183,0.0957 -0.0062,0.007 -0.02228,0.10423 -0.03496,0.21634 -0.03613,0.31903 -0.03133,1.27168 0.008,1.5781 0.0069,0.0542 0.01555,0.1676 0.01903,0.2519 0.0062,0.15329 0.0062,0.15329 -0.03999,0.19398 -0.0417,0.0366 -0.05493,0.0407 -0.132383,0.0407 -0.07643,0 -0.0901,-0.004 -0.122389,-0.0363 z"
           id="path2416" />
        <path
           style="display:inline;fill:#d7b7bf;fill-opacity:1;stroke-width:0.0131509"
           d="m 11.385862,123.65354 c -0.188018,-0.0122 -0.256791,-0.0393 -0.400901,-0.15851 -0.0584,-0.0483 -0.05979,-0.0519 -0.09036,-0.23859 -0.0054,-0.0338 -0.01818,-0.0712 -0.02808,-0.0831 -0.01408,-0.017 -0.01787,-0.0862 -0.01748,-0.31997 7.73e-4,-0.54251 0.0304,-0.87294 0.09937,-1.11649 0.05083,-0.17941 0.06282,-0.19533 0.176423,-0.23394 0.06962,-0.0236 0.06962,-0.0236 0.121205,0.0121 0.02839,0.0196 0.06514,0.0613 0.08175,0.0927 0.03017,0.0569 0.03017,0.0569 -0.01485,0.14712 -0.03164,0.0633 -0.04394,0.10414 -0.04108,0.13703 0.0023,0.0258 -0.0082,0.079 -0.02313,0.11837 -0.01973,0.0519 -0.02715,0.10215 -0.02723,0.18338 -7e-6,0.0615 -0.0062,0.13254 -0.0133,0.15781 -0.01772,0.0611 -0.01895,0.6478 -0.0016,0.72321 0.04371,0.18878 0.06738,0.2284 0.165098,0.27569 0.05229,0.0253 0.08233,0.0173 0.174673,0.007 0.126511,-0.0106 0.255351,-0.0253 0.286302,-0.0327 0.03095,-0.007 0.0697,-0.01 0.08609,-0.006 0.0164,0.004 0.05709,-0.002 0.09044,-0.013 0.104767,-0.0356 0.191825,-0.0323 0.263637,0.01 0.03845,0.0226 0.06243,0.046 0.06243,0.0607 0,0.0532 -0.04348,0.14222 -0.09534,0.19507 -0.05477,0.0559 -0.05477,0.0559 -0.213153,0.0561 -0.0871,10e-5 -0.223457,0.005 -0.303021,0.0124 -0.07955,0.007 -0.177204,0.0149 -0.216989,0.0181 -0.03976,0.004 -0.03417,0.002 -0.120963,-0.004 z"
           id="path2418"
           sodipodi:nodetypes="cscccscccccccccsccsccscscccc" />
        <path
           style="display:inline;fill:#d7b7bf;fill-opacity:1;stroke-width:0.0131509"
           d="m 14.558846,123.65354 c -0.188018,-0.0122 -0.256791,-0.0393 -0.400901,-0.15851 -0.0584,-0.0483 -0.05979,-0.0519 -0.09036,-0.23859 -0.0054,-0.0338 -0.01818,-0.0712 -0.02808,-0.0831 -0.01408,-0.017 -0.01787,-0.0862 -0.01748,-0.31997 7.73e-4,-0.54251 0.0304,-0.87294 0.09937,-1.11649 0.05083,-0.17941 0.06282,-0.19533 0.176423,-0.23394 0.06962,-0.0236 0.06962,-0.0236 0.121205,0.0121 0.02839,0.0196 0.06514,0.0613 0.08175,0.0927 0.03017,0.0569 0.03017,0.0569 -0.01485,0.14712 -0.03164,0.0633 -0.04394,0.10414 -0.04108,0.13703 0.0023,0.0258 -0.0082,0.079 -0.02313,0.11837 -0.01973,0.0519 -0.02715,0.10215 -0.02723,0.18338 -7e-6,0.0615 -0.0062,0.13254 -0.0133,0.15781 -0.01772,0.0611 -0.01895,0.6478 -0.0016,0.72321 0.04371,0.18878 0.06738,0.2284 0.165098,0.27569 0.05229,0.0253 0.08233,0.0173 0.174673,0.007 0.126511,-0.0106 0.255351,-0.0253 0.286302,-0.0327 0.03095,-0.007 0.0697,-0.01 0.08609,-0.006 0.0164,0.004 0.05709,-0.002 0.09044,-0.013 0.104767,-0.0356 0.191825,-0.0323 0.263637,0.01 0.03845,0.0226 0.06243,0.046 0.06243,0.0607 0,0.0532 -0.04348,0.14222 -0.09534,0.19507 -0.05477,0.0559 -0.05477,0.0559 -0.213153,0.0561 -0.0871,10e-5 -0.223457,0.005 -0.303021,0.0124 -0.07955,0.007 -0.177204,0.0149 -0.216989,0.0181 -0.03976,0.004 -0.03417,0.002 -0.120963,-0.004 z"
           id="path2420"
           sodipodi:nodetypes="cscccscccccccccsccsccscscccc" />
      </g>
    </g>
    <g
       aria-label="Live"
       id="text1501"
       style="font-size:3.175px;opacity:1;fill:#382d30;stroke-width:0.2"
       transform="translate(7.0840049,-5.2916667)">
      <path
         d="m 6.6584117,15.478595 h -1.460376 v -2.308386 h 0.306958 v 2.035534 h 1.153418 z"
         id="path2199" />
      <path
         d="M 7.2552745,13.457013 H 6.9266124 V 13.154706 H 7.2552745 Z M 7.236671,15.478595 H 6.9452159 V 13.746918 H 7.236671 Z"
         id="path2201" />
      <path
         d="M 9.310963,13.746918 8.6102306,15.478595 H 8.3172252 L 7.6211437,13.746918 h 0.3162597 l 0.5364014,1.37821 0.5317505,-1.37821 z"
         id="path2203" />
      <path
         d="M 11.113954,14.642987 H 9.8380625 q 0,0.15968 0.048059,0.279053 0.048059,0.117822 0.1317745,0.193786 0.08062,0.07441 0.190686,0.111621 0.111622,0.03721 0.244947,0.03721 0.176733,0 0.355017,-0.06976 0.179834,-0.07131 0.255798,-0.139526 h 0.0155 v 0.31781 q -0.147278,0.06201 -0.300757,0.103869 -0.153479,0.04186 -0.322461,0.04186 -0.430981,0 -0.6728269,-0.232544 -0.2418457,-0.234094 -0.2418457,-0.663525 0,-0.42478 0.2309937,-0.674377 0.2325439,-0.249598 0.6108159,-0.249598 0.350366,0 0.539502,0.204639 0.190686,0.204639 0.190686,0.58136 z M 10.83025,14.419745 q -0.0015,-0.229444 -0.116272,-0.355017 -0.113171,-0.125574 -0.345715,-0.125574 -0.234095,0 -0.3736209,0.137976 -0.1379761,0.137976 -0.1565796,0.342615 z"
         id="path2205" />
    </g>
    <g
       aria-label="Broadcast"
       id="text1919"
       style="font-size:3.175px;opacity:1;fill:#382d30;stroke-width:0.2"
       transform="translate(6.0287729,-5.2916667)">
      <path
         d="m 3.2348478,32.231059 q 0,0.172083 -0.065112,0.303858 -0.065112,0.131775 -0.1751831,0.217041 -0.1302246,0.102319 -0.2868042,0.145727 -0.1550293,0.04341 -0.3953247,0.04341 H 1.4938688 V 30.632707 H 2.177548 q 0.2526978,0 0.3782715,0.0186 0.1255737,0.0186 0.2402954,0.07751 0.127124,0.06666 0.1844849,0.172083 0.057361,0.10387 0.057361,0.249597 0,0.164331 -0.083716,0.280603 -0.083716,0.114722 -0.2232422,0.184485 v 0.0124 q 0.2340942,0.04806 0.3689697,0.206189 0.1348755,0.15658 0.1348755,0.396875 z M 2.7186003,31.190813 q 0,-0.08372 -0.027905,-0.141077 -0.027905,-0.05736 -0.089917,-0.09302 -0.072864,-0.04186 -0.1767334,-0.05116 Q 2.320175,30.894707 2.166696,30.894707 H 1.8008268 v 0.666626 h 0.396875 q 0.1441773,0 0.2294434,-0.01395 0.085266,-0.0155 0.1581299,-0.06201 0.072864,-0.04651 0.1023193,-0.119372 0.031006,-0.07441 0.031006,-0.175183 z m 0.1968872,1.052649 q 0,-0.139527 -0.041858,-0.221692 -0.041858,-0.08217 -0.1519287,-0.139527 -0.074414,-0.03876 -0.1813842,-0.04961 -0.10542,-0.0124 -0.2573487,-0.0124 H 1.8008268 v 0.858862 h 0.4061768 q 0.2015381,0 0.3302124,-0.02015 0.1286743,-0.0217 0.2108398,-0.07751 0.086816,-0.06046 0.127124,-0.137976 0.040308,-0.07751 0.040308,-0.199987 z"
         id="path2208" />
      <path
         d="m 4.7277798,31.527226 h -0.015503 q -0.065112,-0.0155 -0.1271241,-0.0217 -0.060461,-0.0078 -0.1441772,-0.0078 -0.1348755,0 -0.2604492,0.06046 -0.1255737,0.05891 -0.2418457,0.153479 v 1.229382 H 3.6472256 V 31.20937 h 0.2914551 v 0.255799 q 0.1736328,-0.139527 0.3054077,-0.196888 0.1333252,-0.05891 0.2713013,-0.05891 0.075964,0 0.1100708,0.0047 0.034106,0.0031 0.1023193,0.01395 z"
         id="path2210" />
      <path
         d="m 6.4780604,32.07603 q 0,0.42323 -0.217041,0.668176 -0.217041,0.244947 -0.5813599,0.244947 -0.3674194,0 -0.5844604,-0.244947 -0.2154907,-0.244946 -0.2154907,-0.668176 0,-0.42323 0.2154907,-0.668176 0.217041,-0.246497 0.5844604,-0.246497 0.3643189,0 0.5813599,0.246497 0.217041,0.244946 0.217041,0.668176 z m -0.3007568,0 q 0,-0.336414 -0.1317749,-0.499194 -0.1317749,-0.164331 -0.3658692,-0.164331 -0.2371948,0 -0.3689697,0.164331 -0.1302246,0.16278 -0.1302246,0.499194 0,0.325561 0.1317749,0.494543 0.1317749,0.167432 0.3674194,0.167432 0.232544,0 0.3643189,-0.165881 0.1333252,-0.167432 0.1333252,-0.496094 z"
         id="path2212" />
      <path
         d="M 8.2748502,32.941093 H 7.9849454 v -0.184484 q -0.038757,0.02636 -0.1054199,0.07441 -0.065112,0.04651 -0.1271241,0.07441 -0.072864,0.03566 -0.1674316,0.05891 -0.094568,0.02481 -0.2216919,0.02481 -0.2340942,0 -0.396875,-0.15503 -0.1627808,-0.155029 -0.1627808,-0.395324 0,-0.196888 0.083716,-0.317811 0.085266,-0.122473 0.2418457,-0.192236 0.1581298,-0.06976 0.3798217,-0.09457 0.2216919,-0.0248 0.47594,-0.03721 v -0.04496 q 0,-0.09922 -0.035657,-0.164331 -0.034106,-0.06511 -0.099219,-0.10232 -0.062012,-0.03566 -0.1488281,-0.04806 -0.086816,-0.0124 -0.1813843,-0.0124 -0.1147217,0 -0.2557983,0.03101 -0.1410767,0.02946 -0.2914551,0.08682 h -0.015503 v -0.296106 q 0.085266,-0.02325 0.2464966,-0.05116 0.1612305,-0.02791 0.3178101,-0.02791 0.1829345,0 0.31781,0.03101 0.1364258,0.02946 0.2356446,0.10232 0.097668,0.07131 0.1488281,0.184484 0.05116,0.113172 0.05116,0.280603 z m -0.2899048,-0.42633 v -0.482141 q -0.1333252,0.0078 -0.3147095,0.02325 -0.179834,0.0155 -0.2852539,0.04496 -0.1255737,0.03566 -0.2030884,0.111621 -0.077515,0.07441 -0.077515,0.206189 0,0.148828 0.089917,0.224792 0.089917,0.07441 0.2744018,0.07441 0.153479,0 0.280603,-0.05891 0.1271241,-0.06046 0.2356446,-0.144177 z"
         id="path2214" />
      <path
         d="M 10.240622,32.941093 H 9.9491666 v -0.181384 q -0.1255738,0.108521 -0.2619995,0.168982 -0.1364258,0.06046 -0.296106,0.06046 -0.3100586,0 -0.4929932,-0.238746 -0.1813842,-0.238745 -0.1813842,-0.661975 0,-0.220141 0.062012,-0.392224 0.063562,-0.172082 0.1705322,-0.293005 0.1054199,-0.117822 0.2449463,-0.179834 0.1410767,-0.06201 0.2914551,-0.06201 0.1364258,0 0.2418457,0.02946 0.1054199,0.02791 0.2216919,0.08837 v -0.750341 h 0.2914551 z m -0.2914554,-0.42633 v -0.993738 q -0.1178223,-0.05271 -0.2108399,-0.07286 -0.093018,-0.02015 -0.2030884,-0.02015 -0.2449462,0 -0.381372,0.170532 -0.1364258,0.170532 -0.1364258,0.483691 0,0.308508 0.1054199,0.469739 0.1054199,0.15968 0.3379639,0.15968 0.1240234,0 0.2511474,-0.05426 0.1271241,-0.05581 0.2371949,-0.142627 z"
         id="path2216" />
      <path
         d="m 12.094772,32.832573 q -0.145728,0.06976 -0.277503,0.10852 -0.130224,0.03876 -0.277502,0.03876 -0.187585,0 -0.344165,-0.05426 -0.15658,-0.05581 -0.268201,-0.167432 -0.113171,-0.111621 -0.175183,-0.282153 -0.06201,-0.170533 -0.06201,-0.398426 0,-0.42478 0.232543,-0.666626 0.234095,-0.241845 0.617017,-0.241845 0.148828,0 0.291455,0.04186 0.144177,0.04186 0.26355,0.102319 v 0.324011 h -0.0155 q -0.133325,-0.10387 -0.275952,-0.15968 -0.141077,-0.05581 -0.275952,-0.05581 -0.248047,0 -0.392224,0.167432 -0.142627,0.165881 -0.142627,0.488342 0,0.313159 0.139526,0.482141 0.141077,0.167432 0.395325,0.167432 0.08837,0 0.179834,-0.02325 0.09147,-0.02325 0.164331,-0.06046 0.06356,-0.03256 0.119372,-0.06821 0.05581,-0.03721 0.08837,-0.06356 h 0.0155 z"
         id="path2218" />
      <path
         d="m 13.814047,32.941093 h -0.289905 v -0.184484 q -0.03876,0.02636 -0.10542,0.07441 -0.06511,0.04651 -0.127124,0.07441 -0.07286,0.03566 -0.167432,0.05891 -0.09457,0.02481 -0.221692,0.02481 -0.234094,0 -0.396875,-0.15503 -0.16278,-0.155029 -0.16278,-0.395324 0,-0.196888 0.08371,-0.317811 0.08527,-0.122473 0.241846,-0.192236 0.15813,-0.06976 0.379822,-0.09457 0.221692,-0.0248 0.47594,-0.03721 v -0.04496 q 0,-0.09922 -0.03566,-0.164331 -0.03411,-0.06511 -0.09922,-0.10232 -0.06201,-0.03566 -0.148828,-0.04806 -0.08682,-0.0124 -0.181384,-0.0124 -0.114722,0 -0.255798,0.03101 -0.141077,0.02946 -0.291455,0.08682 h -0.0155 v -0.296106 q 0.08527,-0.02325 0.246496,-0.05116 0.161231,-0.02791 0.31781,-0.02791 0.182935,0 0.31781,0.03101 0.136426,0.02946 0.235645,0.10232 0.09767,0.07131 0.148828,0.184484 0.05116,0.113172 0.05116,0.280603 z m -0.289905,-0.42633 v -0.482141 q -0.133325,0.0078 -0.31471,0.02325 -0.179834,0.0155 -0.285254,0.04496 -0.125573,0.03566 -0.203088,0.111621 -0.07752,0.07441 -0.07752,0.206189 0,0.148828 0.08992,0.224792 0.08992,0.07441 0.274402,0.07441 0.153479,0 0.280603,-0.05891 0.127124,-0.06046 0.235645,-0.144177 z"
         id="path2220" />
      <path
         d="m 15.612386,32.441899 q 0,0.237195 -0.196887,0.389124 -0.195337,0.151928 -0.534851,0.151928 -0.192236,0 -0.353467,-0.04496 -0.15968,-0.04651 -0.2682,-0.100769 V 32.51011 h 0.0155 q 0.137976,0.10387 0.306958,0.165881 0.168982,0.06046 0.324011,0.06046 0.192236,0 0.300757,-0.06201 0.10852,-0.06201 0.10852,-0.195337 0,-0.102319 -0.05891,-0.155029 -0.05891,-0.05271 -0.226343,-0.08992 -0.06201,-0.01395 -0.16278,-0.03256 -0.09922,-0.0186 -0.181385,-0.04031 -0.227893,-0.06046 -0.324011,-0.176733 -0.09457,-0.117823 -0.09457,-0.288355 0,-0.10697 0.04341,-0.201538 0.04496,-0.09457 0.134876,-0.168982 0.08682,-0.07286 0.220142,-0.114721 0.134875,-0.04341 0.300756,-0.04341 0.15503,0 0.31316,0.03876 0.15968,0.03721 0.2651,0.09147 v 0.311609 h -0.0155 q -0.111621,-0.08217 -0.271302,-0.137976 -0.15968,-0.05736 -0.313159,-0.05736 -0.15968,0 -0.269751,0.06201 -0.110071,0.06046 -0.110071,0.181384 0,0.10697 0.06666,0.16123 0.06511,0.05426 0.21084,0.08837 0.08061,0.0186 0.179834,0.03721 0.100769,0.0186 0.167432,0.03411 0.203088,0.04651 0.313159,0.15968 0.11007,0.114721 0.11007,0.303857 z"
         id="path2222" />
      <path
         d="m 16.928585,32.925591 q -0.08217,0.0217 -0.179834,0.03566 -0.09612,0.01395 -0.172082,0.01395 -0.265101,0 -0.403077,-0.142627 -0.137976,-0.142627 -0.137976,-0.457336 v -0.920874 h -0.196887 v -0.244947 h 0.196887 v -0.497644 h 0.291455 v 0.497644 h 0.601514 v 0.244947 h -0.601514 v 0.789099 q 0,0.136425 0.0062,0.21394 0.0062,0.07596 0.04341,0.142627 0.03411,0.06201 0.09302,0.09147 0.06046,0.02791 0.182935,0.02791 0.07131,0 0.148828,-0.02015 0.07752,-0.0217 0.111621,-0.03566 h 0.0155 z"
         id="path2224" />
    </g>
    <g
       aria-label="Monitor"
       id="text2079"
       style="font-size:3.175px;opacity:1;fill:#382d30;stroke-width:0.2"
       transform="translate(7.8867974,3.1749999)">
      <path
         d="M 3.5495573,81.095261 H 3.2425993 V 79.106235 L 2.600778,80.459641 H 2.4178434 L 1.780673,79.106235 v 1.989026 H 1.4938688 v -2.308387 h 0.4185791 l 0.6154663,1.285193 0.5953125,-1.285193 h 0.4263306 z"
         id="path2244" />
      <path
         d="m 5.6222989,80.230197 q 0,0.42323 -0.217041,0.668176 -0.217041,0.244947 -0.5813599,0.244947 -0.3674194,0 -0.5844604,-0.244947 -0.2154907,-0.244946 -0.2154907,-0.668176 0,-0.42323 0.2154907,-0.668176 0.217041,-0.246497 0.5844604,-0.246497 0.3643189,0 0.5813599,0.246497 0.217041,0.244946 0.217041,0.668176 z m -0.3007568,0 q 0,-0.336413 -0.131775,-0.499194 -0.1317749,-0.164331 -0.3658691,-0.164331 -0.2371948,0 -0.3689697,0.164331 -0.1302246,0.162781 -0.1302246,0.499194 0,0.325562 0.1317749,0.494544 0.1317749,0.167431 0.3674194,0.167431 0.232544,0 0.3643189,-0.165881 0.1333252,-0.167432 0.1333252,-0.496094 z"
         id="path2246" />
      <path
         d="M 7.5214075,81.095261 H 7.2299524 v -0.985987 q 0,-0.119372 -0.013953,-0.223242 -0.013953,-0.10542 -0.05116,-0.164331 -0.038757,-0.06511 -0.1116211,-0.09612 -0.072864,-0.03256 -0.1891357,-0.03256 -0.1193726,0 -0.2495972,0.05891 -0.1302246,0.05891 -0.2495972,0.150378 v 1.292945 h -0.291455 v -1.731678 h 0.291455 v 0.192237 q 0.1364258,-0.113172 0.2821534,-0.176734 0.1457275,-0.06356 0.2992065,-0.06356 0.280603,0 0.4278809,0.168982 0.1472778,0.168982 0.1472778,0.486792 z"
         id="path2248" />
      <path
         d="M 8.3957731,79.073679 H 8.067111 v -0.302308 h 0.3286621 z m -0.018603,2.021582 H 8.0857145 v -1.731678 h 0.2914551 z"
         id="path2250" />
      <path
         d="m 9.8530483,81.079758 q -0.082165,0.0217 -0.179834,0.03566 -0.096118,0.01395 -0.1720825,0.01395 -0.2651001,0 -0.4030762,-0.142627 -0.137976,-0.142627 -0.137976,-0.457336 V 79.60853 H 8.7631924 v -0.244947 h 0.1968872 v -0.497644 h 0.291455 v 0.497644 H 9.8530483 V 79.60853 H 9.2515346 v 0.789099 q 0,0.136426 0.0062,0.21394 0.0062,0.07596 0.043408,0.142627 0.034107,0.06201 0.093018,0.09147 0.060461,0.02791 0.1829346,0.02791 0.071313,0 0.1488281,-0.02015 0.077515,-0.0217 0.1116211,-0.03566 h 0.015503 z"
         id="path2252" />
      <path
         d="m 11.680844,80.230197 q 0,0.42323 -0.217041,0.668176 -0.217042,0.244947 -0.58136,0.244947 -0.36742,0 -0.584461,-0.244947 -0.215491,-0.244946 -0.215491,-0.668176 0,-0.42323 0.215491,-0.668176 0.217041,-0.246497 0.584461,-0.246497 0.364318,0 0.58136,0.246497 0.217041,0.244946 0.217041,0.668176 z m -0.300757,0 q 0,-0.336413 -0.131775,-0.499194 -0.131775,-0.164331 -0.365869,-0.164331 -0.237195,0 -0.36897,0.164331 -0.130225,0.162781 -0.130225,0.499194 0,0.325562 0.131775,0.494544 0.131775,0.167431 0.36742,0.167431 0.232544,0 0.364318,-0.165881 0.133326,-0.167432 0.133326,-0.496094 z"
         id="path2254" />
      <path
         d="m 13.212533,79.681393 h -0.0155 q -0.06511,-0.0155 -0.127124,-0.0217 -0.06046,-0.0078 -0.144177,-0.0078 -0.134876,0 -0.260449,0.06046 -0.125574,0.05891 -0.241846,0.153479 v 1.229383 h -0.291455 v -1.731678 h 0.291455 v 0.255799 q 0.173633,-0.139527 0.305408,-0.196887 0.133325,-0.05891 0.271301,-0.05891 0.07596,0 0.110071,0.0047 0.03411,0.0031 0.102319,0.01395 z"
         id="path2256" />
    </g>
    <g
       aria-label="Broadcast"
       id="text2083"
       style="font-size:3.175px;opacity:1;fill:#382d30;stroke-width:0.2"
       transform="translate(6.0287729)">
      <path
         d="m 3.2348478,103.66854 q 0,0.17208 -0.065112,0.30385 -0.065112,0.13178 -0.1751831,0.21704 -0.1302246,0.10232 -0.2868042,0.14573 -0.1550293,0.0434 -0.3953247,0.0434 h -0.818555 v -2.30839 H 2.177548 q 0.2526978,0 0.3782715,0.0186 0.1255737,0.0186 0.2402954,0.0775 0.127124,0.0667 0.1844849,0.17209 0.057361,0.10386 0.057361,0.24959 0,0.16433 -0.083716,0.28061 -0.083716,0.11472 -0.2232422,0.18448 v 0.0124 q 0.2340942,0.0481 0.3689697,0.20619 0.1348755,0.15658 0.1348755,0.39688 z m -0.5162475,-1.04025 q 0,-0.0837 -0.027905,-0.14108 -0.027905,-0.0574 -0.089917,-0.093 -0.072864,-0.0419 -0.1767334,-0.0512 -0.1038696,-0.0109 -0.2573486,-0.0109 H 1.8008268 v 0.66663 h 0.396875 q 0.1441773,0 0.2294434,-0.014 0.085266,-0.0155 0.1581299,-0.062 0.072864,-0.0465 0.1023193,-0.11938 0.031006,-0.0744 0.031006,-0.17518 z m 0.1968872,1.05265 q 0,-0.13953 -0.041858,-0.22169 -0.041858,-0.0822 -0.1519287,-0.13953 -0.074414,-0.0388 -0.1813842,-0.0496 -0.10542,-0.0124 -0.2573487,-0.0124 H 1.8008268 v 0.85886 h 0.4061768 q 0.2015381,0 0.3302124,-0.0202 0.1286743,-0.0217 0.2108398,-0.0775 0.086816,-0.0605 0.127124,-0.13797 0.040308,-0.0775 0.040308,-0.19999 z"
         id="path2259" />
      <path
         d="m 4.7277798,102.9647 h -0.015503 q -0.065112,-0.0155 -0.1271241,-0.0217 -0.060461,-0.008 -0.1441772,-0.008 -0.1348755,0 -0.2604492,0.0605 -0.1255737,0.0589 -0.2418457,0.15348 v 1.22938 h -0.291455 v -1.73168 h 0.2914551 v 0.2558 q 0.1736328,-0.13952 0.3054077,-0.19689 0.1333252,-0.0589 0.2713013,-0.0589 0.075964,0 0.1100708,0.005 0.034106,0.003 0.1023193,0.014 z"
         id="path2261" />
      <path
         d="m 6.4780604,103.51351 q 0,0.42323 -0.217041,0.66817 -0.217041,0.24495 -0.5813599,0.24495 -0.3674194,0 -0.5844604,-0.24495 -0.2154907,-0.24494 -0.2154907,-0.66817 0,-0.42323 0.2154907,-0.66818 0.217041,-0.2465 0.5844604,-0.2465 0.3643189,0 0.5813599,0.2465 0.217041,0.24495 0.217041,0.66818 z m -0.3007568,0 q 0,-0.33642 -0.1317749,-0.4992 -0.1317749,-0.16433 -0.3658692,-0.16433 -0.2371948,0 -0.3689697,0.16433 -0.1302246,0.16278 -0.1302246,0.4992 0,0.32556 0.1317749,0.49454 0.1317749,0.16743 0.3674194,0.16743 0.232544,0 0.3643189,-0.16588 0.1333252,-0.16743 0.1333252,-0.49609 z"
         id="path2263" />
      <path
         d="M 8.2748502,104.37857 H 7.9849454 v -0.18448 q -0.038757,0.0263 -0.1054199,0.0744 -0.065112,0.0465 -0.1271241,0.0744 -0.072864,0.0357 -0.1674316,0.0589 -0.094568,0.0248 -0.2216919,0.0248 -0.2340942,0 -0.396875,-0.15503 -0.1627808,-0.15503 -0.1627808,-0.39532 0,-0.19689 0.083716,-0.31781 0.085266,-0.12248 0.2418457,-0.19224 0.1581298,-0.0698 0.3798217,-0.0946 0.2216919,-0.0248 0.47594,-0.0372 v -0.045 q 0,-0.0992 -0.035657,-0.16434 -0.034106,-0.0651 -0.099219,-0.10231 -0.062012,-0.0357 -0.1488281,-0.0481 -0.086816,-0.0124 -0.1813843,-0.0124 -0.1147217,0 -0.2557983,0.031 -0.1410767,0.0295 -0.2914551,0.0868 h -0.015503 v -0.29611 q 0.085266,-0.0233 0.2464966,-0.0512 0.1612305,-0.0279 0.3178101,-0.0279 0.1829345,0 0.31781,0.031 0.1364258,0.0295 0.2356446,0.10232 0.097668,0.0713 0.1488281,0.18449 0.05116,0.11317 0.05116,0.2806 z m -0.2899048,-0.42633 v -0.48214 q -0.1333252,0.008 -0.3147095,0.0233 -0.179834,0.0155 -0.2852539,0.045 -0.1255737,0.0357 -0.2030884,0.11162 -0.077515,0.0744 -0.077515,0.20619 0,0.14883 0.089917,0.22479 0.089917,0.0744 0.2744018,0.0744 0.153479,0 0.280603,-0.0589 0.1271241,-0.0605 0.2356446,-0.14418 z"
         id="path2265" />
      <path
         d="M 10.240622,104.37857 H 9.9491666 v -0.18138 q -0.1255738,0.10852 -0.2619995,0.16898 -0.1364258,0.0605 -0.296106,0.0605 -0.3100586,0 -0.4929932,-0.23875 -0.1813842,-0.23874 -0.1813842,-0.66197 0,-0.22014 0.062012,-0.39222 0.063562,-0.17209 0.1705322,-0.29301 0.1054199,-0.11782 0.2449463,-0.17983 0.1410767,-0.062 0.2914551,-0.062 0.1364258,0 0.2418457,0.0295 0.1054199,0.0279 0.2216919,0.0884 v -0.75035 h 0.2914551 z m -0.2914554,-0.42633 v -0.99374 q -0.1178223,-0.0527 -0.2108399,-0.0729 -0.093018,-0.0202 -0.2030884,-0.0202 -0.2449462,0 -0.381372,0.17054 -0.1364258,0.17053 -0.1364258,0.48369 0,0.30851 0.1054199,0.46974 0.1054199,0.15968 0.3379639,0.15968 0.1240234,0 0.2511474,-0.0543 0.1271241,-0.0558 0.2371949,-0.14263 z"
         id="path2267" />
      <path
         d="m 12.094772,104.27005 q -0.145728,0.0698 -0.277503,0.10852 -0.130224,0.0388 -0.277502,0.0388 -0.187585,0 -0.344165,-0.0543 -0.15658,-0.0558 -0.268201,-0.16743 -0.113171,-0.11163 -0.175183,-0.28216 -0.06201,-0.17053 -0.06201,-0.39842 0,-0.42478 0.232543,-0.66663 0.234095,-0.24184 0.617017,-0.24184 0.148828,0 0.291455,0.0418 0.144177,0.0419 0.26355,0.10232 v 0.32401 h -0.0155 q -0.133325,-0.10387 -0.275952,-0.15968 -0.141077,-0.0558 -0.275952,-0.0558 -0.248047,0 -0.392224,0.16744 -0.142627,0.16588 -0.142627,0.48834 0,0.31316 0.139526,0.48214 0.141077,0.16743 0.395325,0.16743 0.08837,0 0.179834,-0.0233 0.09147,-0.0233 0.164331,-0.0605 0.06356,-0.0326 0.119372,-0.0682 0.05581,-0.0372 0.08837,-0.0636 h 0.0155 z"
         id="path2269" />
      <path
         d="m 13.814047,104.37857 h -0.289905 v -0.18448 q -0.03876,0.0263 -0.10542,0.0744 -0.06511,0.0465 -0.127124,0.0744 -0.07286,0.0357 -0.167432,0.0589 -0.09457,0.0248 -0.221692,0.0248 -0.234094,0 -0.396875,-0.15503 -0.16278,-0.15503 -0.16278,-0.39532 0,-0.19689 0.08371,-0.31781 0.08527,-0.12248 0.241846,-0.19224 0.15813,-0.0698 0.379822,-0.0946 0.221692,-0.0248 0.47594,-0.0372 v -0.045 q 0,-0.0992 -0.03566,-0.16434 -0.03411,-0.0651 -0.09922,-0.10231 -0.06201,-0.0357 -0.148828,-0.0481 -0.08682,-0.0124 -0.181384,-0.0124 -0.114722,0 -0.255798,0.031 -0.141077,0.0295 -0.291455,0.0868 h -0.0155 v -0.29611 q 0.08527,-0.0233 0.246496,-0.0512 0.161231,-0.0279 0.31781,-0.0279 0.182935,0 0.31781,0.031 0.136426,0.0295 0.235645,0.10232 0.09767,0.0713 0.148828,0.18449 0.05116,0.11317 0.05116,0.2806 z m -0.289905,-0.42633 v -0.48214 q -0.133325,0.008 -0.31471,0.0233 -0.179834,0.0155 -0.285254,0.045 -0.125573,0.0357 -0.203088,0.11162 -0.07752,0.0744 -0.07752,0.20619 0,0.14883 0.08992,0.22479 0.08992,0.0744 0.274402,0.0744 0.153479,0 0.280603,-0.0589 0.127124,-0.0605 0.235645,-0.14418 z"
         id="path2271" />
      <path
         d="m 15.612386,103.87938 q 0,0.23719 -0.196887,0.38912 -0.195337,0.15193 -0.534851,0.15193 -0.192236,0 -0.353467,-0.045 -0.15968,-0.0465 -0.2682,-0.10077 v -0.32711 h 0.0155 q 0.137976,0.10387 0.306958,0.16588 0.168982,0.0605 0.324011,0.0605 0.192236,0 0.300757,-0.062 0.10852,-0.062 0.10852,-0.19534 0,-0.10232 -0.05891,-0.15503 -0.05891,-0.0527 -0.226343,-0.0899 -0.06201,-0.014 -0.16278,-0.0326 -0.09922,-0.0186 -0.181385,-0.0403 -0.227893,-0.0605 -0.324011,-0.17673 -0.09457,-0.11782 -0.09457,-0.28835 0,-0.10697 0.04341,-0.20154 0.04496,-0.0946 0.134876,-0.16898 0.08682,-0.0729 0.220142,-0.11473 0.134875,-0.0434 0.300756,-0.0434 0.15503,0 0.31316,0.0387 0.15968,0.0372 0.2651,0.0915 v 0.31161 h -0.0155 q -0.111621,-0.0822 -0.271302,-0.13798 -0.15968,-0.0574 -0.313159,-0.0574 -0.15968,0 -0.269751,0.062 -0.110071,0.0605 -0.110071,0.18139 0,0.10697 0.06666,0.16123 0.06511,0.0543 0.21084,0.0884 0.08061,0.0186 0.179834,0.0372 0.100769,0.0186 0.167432,0.0341 0.203088,0.0465 0.313159,0.15968 0.11007,0.11472 0.11007,0.30386 z"
         id="path2273" />
      <path
         d="m 16.928585,104.36307 q -0.08217,0.0217 -0.179834,0.0357 -0.09612,0.014 -0.172082,0.014 -0.265101,0 -0.403077,-0.14263 -0.137976,-0.14263 -0.137976,-0.45734 v -0.92087 h -0.196887 v -0.24495 h 0.196887 v -0.49764 h 0.291455 v 0.49764 h 0.601514 v 0.24495 h -0.601514 v 0.7891 q 0,0.13642 0.0062,0.21394 0.0062,0.076 0.04341,0.14263 0.03411,0.062 0.09302,0.0915 0.06046,0.0279 0.182935,0.0279 0.07131,0 0.148828,-0.0202 0.07752,-0.0217 0.111621,-0.0356 h 0.0155 z"
         id="path2275" />
    </g>
    <g
       aria-label="Audition"
       id="text2093"
       style="font-size:3.175px;opacity:1;fill:#382d30;stroke-width:0.2"
       transform="translate(7.6372018,-0.52916667)">
      <path
         d="M 3.3139127,48.816097 H 2.9868009 L 2.7604582,48.172726 H 1.7620695 L 1.5357267,48.816097 H 1.2241179 L 2.0643766,46.507711 H 2.473654 Z M 2.6658903,47.909176 2.2612638,46.775912 1.8550871,47.909176 Z"
         id="path2227" />
      <path
         d="M 5.0610929,48.816097 H 4.7696378 v -0.192236 q -0.1472778,0.116272 -0.2821533,0.178284 -0.1348755,0.06201 -0.2976562,0.06201 -0.2728516,0 -0.4247803,-0.165881 Q 3.6131193,48.530843 3.6131193,48.208382 V 47.08442 h 0.2914551 v 0.985986 q 0,0.131775 0.012402,0.226343 0.012402,0.09302 0.05271,0.15968 0.041858,0.06821 0.1085205,0.09922 0.066663,0.03101 0.1937866,0.03101 0.1131714,0 0.2464966,-0.05891 0.1348755,-0.05891 0.2511474,-0.150379 v -1.29295 h 0.2914551 z"
         id="path2229" />
      <path
         d="M 7.0392667,48.816097 H 6.7478116 v -0.181384 q -0.1255737,0.10852 -0.2619995,0.168982 -0.1364258,0.06046 -0.296106,0.06046 -0.3100586,0 -0.4929931,-0.238745 -0.1813843,-0.238745 -0.1813843,-0.661975 0,-0.220141 0.062012,-0.392224 0.063562,-0.172082 0.1705322,-0.293005 0.10542,-0.117823 0.2449463,-0.179834 0.1410767,-0.06201 0.2914551,-0.06201 0.1364258,0 0.2418457,0.02946 0.1054199,0.0279 0.2216919,0.08837 V 46.40385 H 7.039267 Z m -0.2914551,-0.42633 v -0.993738 q -0.1178223,-0.05271 -0.2108399,-0.07286 -0.093017,-0.02015 -0.2030883,-0.02015 -0.2449463,0 -0.3813721,0.170533 -0.1364258,0.170532 -0.1364258,0.483691 0,0.308508 0.1054199,0.469739 0.10542,0.15968 0.3379639,0.15968 0.1240234,0 0.2511475,-0.05426 0.127124,-0.05581 0.2371948,-0.142627 z"
         id="path2231" />
      <path
         d="M 7.9260342,46.794515 H 7.5973721 v -0.302307 h 0.3286621 z m -0.018604,2.021582 H 7.6159756 V 47.08442 h 0.291455 z"
         id="path2233" />
      <path
         d="m 9.3833098,48.800594 q -0.082165,0.0217 -0.179834,0.03566 -0.096118,0.01395 -0.1720825,0.01395 -0.2651001,0 -0.4030761,-0.142627 Q 8.4903411,48.56495 8.4903411,48.25024 V 47.329366 H 8.2934539 V 47.08442 h 0.1968872 v -0.497644 h 0.2914551 v 0.497644 h 0.6015136 v 0.244946 H 8.7817962 v 0.789099 q 0,0.136426 0.0062,0.213941 0.0062,0.07596 0.043408,0.142627 0.034107,0.06201 0.093018,0.09147 0.060461,0.02791 0.1829346,0.02791 0.071314,0 0.1488281,-0.02015 0.077515,-0.02171 0.1116211,-0.03566 h 0.015503 z"
         id="path2235" />
      <path
         d="M 10.048385,46.794515 H 9.7197227 v -0.302307 h 0.3286623 z m -0.0186,2.021582 H 9.7383263 V 47.08442 h 0.2914547 z"
         id="path2237" />
      <path
         d="m 12.08237,47.951034 q 0,0.42323 -0.217041,0.668176 -0.217041,0.244946 -0.58136,0.244946 -0.367419,0 -0.58446,-0.244946 -0.215491,-0.244946 -0.215491,-0.668176 0,-0.42323 0.215491,-0.668176 0.217041,-0.246497 0.58446,-0.246497 0.364319,0 0.58136,0.246497 0.217041,0.244946 0.217041,0.668176 z m -0.300757,0 q 0,-0.336414 -0.131775,-0.499195 -0.131775,-0.164331 -0.365869,-0.164331 -0.237195,0 -0.36897,0.164331 -0.130224,0.162781 -0.130224,0.499195 0,0.325561 0.131775,0.494543 0.131775,0.167432 0.367419,0.167432 0.232544,0 0.364319,-0.165881 0.133325,-0.167432 0.133325,-0.496094 z"
         id="path2239" />
      <path
         d="m 13.981478,48.816097 h -0.291455 v -0.985986 q 0,-0.119373 -0.01395,-0.223242 -0.01395,-0.10542 -0.05116,-0.164331 -0.03876,-0.06511 -0.111621,-0.09612 -0.07286,-0.03256 -0.189136,-0.03256 -0.119373,0 -0.249597,0.05891 -0.130225,0.05891 -0.249597,0.150378 v 1.292944 h -0.291458 v -1.73167 h 0.291456 v 0.192236 q 0.136425,-0.113171 0.282153,-0.176733 0.145727,-0.06356 0.299206,-0.06356 0.280603,0 0.427881,0.168982 0.147278,0.168982 0.147278,0.486792 z"
         id="path2241" />
    </g>
  </g>
  <g
     inkscape:groupmode="layer"
     id="layer3"
     inkscape:label="Ref"
     style="display:none">
    <rect
       style="display:inline;opacity:0.2;mix-blend-mode:normal;fill:#0000ff;fill-opacity:1;stroke-width:0.999995;stroke-miterlimit:4;stroke-dasharray:none"
       id="rect2986"
       width="10.5"
       height="2"
       x="23.536665"
       y="117.60722" />
    <rect
       style="display:inline;opacity:0.2;mix-blend-mode:normal;fill:#0000ff;fill-opacity:1;stroke-width:0.999998;stroke-miterlimit:4;stroke-dasharray:none"
       id="rect925"
       width="10.5"
       height="18.5"
       x="11.895"
       y="99.107224" />
    <rect
       style="display:inline;opacity:0.2;mix-blend-mode:normal;fill:#0000ff;fill-opacity:1;stroke-width:0.999998;stroke-miterlimit:4;stroke-dasharray:none"
       id="rect3021"
       width="10.5"
       height="18.5"
       x="12.424166"
       y="80.607224" />
    <rect
       style="display:inline;opacity:0.2;mix-blend-mode:normal;fill:#0000ff;fill-opacity:1;stroke-width:0.999987;stroke-miterlimit:4;stroke-dasharray:none"
       id="rect3027"
       width="10.5"
       height="1.8000001"
       x="-8.0566092"
       y="86.80722" />
    <rect
       style="display:inline;opacity:0.2;mix-blend-mode:normal;fill:#0000ff;fill-opacity:1;stroke-width:0.999987;stroke-miterlimit:4;stroke-dasharray:none"
       id="rect3044"
       width="10.5"
       height="1.8000001"
       x="-8.0566092"
       y="68.30722" />
    <rect
       style="display:inline;opacity:0.2;mix-blend-mode:normal;fill:#0000ff;fill-opacity:1;stroke-width:0.999987;stroke-miterlimit:4;stroke-dasharray:none"
       id="rect3048"
       width="10.5"
       height="1.8000001"
       x="2.5267246"
       y="105.30722" />
    <rect
       style="display:inline;opacity:0.2;mix-blend-mode:normal;fill:#0000ff;fill-opacity:1;stroke-width:0.999998;stroke-miterlimit:4;stroke-dasharray:none"
       id="rect1633"
       width="10.5"
       height="18.5"
       x="14.011664"
       y="62.107224" />
    <rect
       style="display:inline;opacity:0.2;mix-blend-mode:normal;fill:#0000ff;fill-opacity:1;stroke-width:0.999987;stroke-miterlimit:4;stroke-dasharray:none"
       id="rect1592"
       width="10.5"
       height="1.8000001"
       x="27.743849"
       y="50.32193" />
    <rect
       style="display:inline;opacity:0.2;mix-blend-mode:normal;fill:#0000ff;fill-opacity:1;stroke-width:0.999998;stroke-miterlimit:4;stroke-dasharray:none"
       id="rect1652"
       width="10.5"
       height="18.5"
       x="14.011664"
       y="43.607224" />
    <rect
       style="display:inline;opacity:0.2;mix-blend-mode:normal;fill:#0000ff;fill-opacity:1;stroke-width:0.999998;stroke-miterlimit:4;stroke-dasharray:none"
       id="rect1731"
       width="10.5"
       height="18.5"
       x="15.599163"
       y="25.107224" />
  </g>
  <g
     inkscape:groupmode="layer"
     id="layer11"
     inkscape:label="Screws"
     style="display:none">
    <g
       transform="matrix(0.32902218,0,0,-0.32902194,-168.63328,212.14136)"
       id="g18792"
       style="display:inline;opacity:1;mix-blend-mode:normal;stroke-width:1.14853">
      <path
         d="m 535.6665,631.5 c -3.511,0 -6.367,2.855 -6.367,6.366 0,3.511 2.856,6.367 6.367,6.367 3.511,0 6.367,-2.856 6.367,-6.367 0,-3.511 -2.856,-6.366 -6.367,-6.366"
         style="fill:#bcbcbc;fill-opacity:1;fill-rule:nonzero;stroke:#acacac;stroke-width:1.06117;stroke-miterlimit:4;stroke-dasharray:none;stroke-opacity:1"
         id="path6833"
         inkscape:connector-curvature="0" />
      <path
         inkscape:connector-curvature="0"
         id="path6843"
         style="fill:#727272;fill-opacity:1;fill-rule:nonzero;stroke:none;stroke-width:1.14853"
         d="m 536.448,633.741 h -1.562 v 8.25 h 1.562 z" />
      <path
         inkscape:connector-curvature="0"
         id="path6845"
         style="fill:#727272;fill-opacity:1;fill-rule:nonzero;stroke:none;stroke-width:1.14853"
         d="m 539.792,637.085 h -8.25 v 1.562 h 8.25 z" />
    </g>
    <g
       transform="matrix(0.32902218,0,0,-0.32902194,-168.63328,336.10277)"
       id="g3251"
       style="display:inline;opacity:1;mix-blend-mode:normal;stroke-width:1.14853">
      <path
         d="m 535.6665,631.5 c -3.511,0 -6.367,2.855 -6.367,6.366 0,3.511 2.856,6.367 6.367,6.367 3.511,0 6.367,-2.856 6.367,-6.367 0,-3.511 -2.856,-6.366 -6.367,-6.366"
         style="fill:#bcbcbc;fill-opacity:1;fill-rule:nonzero;stroke:#acacac;stroke-width:1.06117;stroke-miterlimit:4;stroke-dasharray:none;stroke-opacity:1"
         id="path3245"
         inkscape:connector-curvature="0" />
      <path
         inkscape:connector-curvature="0"
         id="path3247"
         style="fill:#727272;fill-opacity:1;fill-rule:nonzero;stroke:none;stroke-width:1.14853"
         d="m 536.448,633.741 h -1.562 v 8.25 h 1.562 z" />
      <path
         inkscape:connector-curvature="0"
         id="path3249"
         style="fill:#727272;fill-opacity:1;fill-rule:nonzero;stroke:none;stroke-width:1.14853"
         d="m 539.792,637.085 h -8.25 v 1.562 h 8.25 z" />
    </g>
  </g>
  <g
     inkscape:label="Control mocks"
     inkscape:groupmode="layer"
     id="layer1"
     style="display:none;opacity:1;mix-blend-mode:normal">
    <g
       id="g2922"
       transform="translate(-85.168964,-46.946996)"
       style="display:inline;opacity:1;mix-blend-mode:normal">
      <path
         inkscape:connector-curvature="0"
         id="path2916"
         d="m 92.788964,127.42922 c -2.235179,0 -4.05281,-1.81762 -4.05281,-4.05282 0,-2.23516 1.817631,-4.05281 4.05281,-4.05281 2.235176,0 4.05281,1.81765 4.05281,4.05281 0,2.2352 -1.817634,4.05282 -4.05281,4.05282"
         style="fill:#e6e6e6;fill-opacity:1;fill-rule:nonzero;stroke:#636663;stroke-width:0.25;stroke-miterlimit:4;stroke-dasharray:none;stroke-opacity:1" />
      <path
         inkscape:connector-curvature="0"
         id="path2918"
         d="m 92.788964,126.29511 c -1.609548,0 -2.918685,-1.30916 -2.918685,-2.91871 0,-1.60954 1.309137,-2.91867 2.918685,-2.91867 1.609549,0 2.918682,1.30913 2.918682,2.91867 0,1.60955 -1.309133,2.91871 -2.918682,2.91871"
         style="fill:#e6e6e6;fill-opacity:1;fill-rule:nonzero;stroke:#636663;stroke-width:0.25;stroke-miterlimit:4;stroke-dasharray:none;stroke-opacity:1" />
      <path
         inkscape:connector-curvature="0"
         id="path2920"
         d="m 94.588681,123.3764 c 0,0.99357 -0.806153,1.79974 -1.799717,1.79974 -0.993567,0 -1.79972,-0.80617 -1.79972,-1.79974 0,-0.99356 0.806153,-1.79969 1.79972,-1.79969 0.993564,0 1.799717,0.80613 1.799717,1.79969"
         style="fill:#000000;fill-opacity:1;fill-rule:nonzero;stroke:none;stroke-width:0.352778" />
    </g>
    <g
       id="g2930"
       transform="translate(-85.168964,-28.446996)"
       style="display:inline;opacity:1;mix-blend-mode:normal">
      <path
         inkscape:connector-curvature="0"
         id="path2924"
         d="m 92.788964,127.42922 c -2.235179,0 -4.05281,-1.81762 -4.05281,-4.05282 0,-2.23516 1.817631,-4.05281 4.05281,-4.05281 2.235176,0 4.05281,1.81765 4.05281,4.05281 0,2.2352 -1.817634,4.05282 -4.05281,4.05282"
         style="fill:#e6e6e6;fill-opacity:1;fill-rule:nonzero;stroke:#636663;stroke-width:0.25;stroke-miterlimit:4;stroke-dasharray:none;stroke-opacity:1" />
      <path
         inkscape:connector-curvature="0"
         id="path2926"
         d="m 92.788964,126.29511 c -1.609548,0 -2.918685,-1.30916 -2.918685,-2.91871 0,-1.60954 1.309137,-2.91867 2.918685,-2.91867 1.609549,0 2.918682,1.30913 2.918682,2.91867 0,1.60955 -1.309133,2.91871 -2.918682,2.91871"
         style="fill:#e6e6e6;fill-opacity:1;fill-rule:nonzero;stroke:#636663;stroke-width:0.25;stroke-miterlimit:4;stroke-dasharray:none;stroke-opacity:1" />
      <path
         inkscape:connector-curvature="0"
         id="path2928"
         d="m 94.588681,123.3764 c 0,0.99357 -0.806153,1.79974 -1.799717,1.79974 -0.993567,0 -1.79972,-0.80617 -1.79972,-1.79974 0,-0.99356 0.806153,-1.79969 1.79972,-1.79969 0.993564,0 1.799717,0.80613 1.799717,1.79969"
         style="fill:#000000;fill-opacity:1;fill-rule:nonzero;stroke:none;stroke-width:0.352778" />
    </g>
    <g
       id="g2938"
       transform="translate(-85.168964,-11.019181)"
       style="display:inline;mix-blend-mode:normal">
      <path
         inkscape:connector-curvature="0"
         id="path2932"
         d="m 92.788964,127.42922 c -2.235179,0 -4.05281,-1.81762 -4.05281,-4.05282 0,-2.23516 1.817631,-4.05281 4.05281,-4.05281 2.235176,0 4.05281,1.81765 4.05281,4.05281 0,2.2352 -1.817634,4.05282 -4.05281,4.05282"
         style="fill:#e6e6e6;fill-opacity:1;fill-rule:nonzero;stroke:#636663;stroke-width:0.25;stroke-miterlimit:4;stroke-dasharray:none;stroke-opacity:1" />
      <path
         inkscape:connector-curvature="0"
         id="path2934"
         d="m 92.788964,126.29511 c -1.609548,0 -2.918685,-1.30916 -2.918685,-2.91871 0,-1.60954 1.309137,-2.91867 2.918685,-2.91867 1.609549,0 2.918682,1.30913 2.918682,2.91867 0,1.60955 -1.309133,2.91871 -2.918682,2.91871"
         style="fill:#e6e6e6;fill-opacity:1;fill-rule:nonzero;stroke:#636663;stroke-width:0.25;stroke-miterlimit:4;stroke-dasharray:none;stroke-opacity:1" />
      <path
         inkscape:connector-curvature="0"
         id="path2936"
         d="m 94.588681,123.3764 c 0,0.99357 -0.806153,1.79974 -1.799717,1.79974 -0.993567,0 -1.79972,-0.80617 -1.79972,-1.79974 0,-0.99356 0.806153,-1.79969 1.79972,-1.79969 0.993564,0 1.799717,0.80613 1.799717,1.79969"
         style="fill:#000000;fill-opacity:1;fill-rule:nonzero;stroke:none;stroke-width:0.352778" />
    </g>
    <g
       id="g1692"
       transform="translate(-85.168964,-102.447)"
       style="display:inline;opacity:1;mix-blend-mode:normal">
      <path
         inkscape:connector-curvature="0"
         id="path1686"
         d="m 92.788964,127.42922 c -2.235179,0 -4.05281,-1.81762 -4.05281,-4.05282 0,-2.23516 1.817631,-4.05281 4.05281,-4.05281 2.235176,0 4.05281,1.81765 4.05281,4.05281 0,2.2352 -1.817634,4.05282 -4.05281,4.05282"
         style="fill:#e6e6e6;fill-opacity:1;fill-rule:nonzero;stroke:#636663;stroke-width:0.25;stroke-miterlimit:4;stroke-dasharray:none;stroke-opacity:1" />
      <path
         inkscape:connector-curvature="0"
         id="path1688"
         d="m 92.788964,126.29511 c -1.609548,0 -2.918685,-1.30916 -2.918685,-2.91871 0,-1.60954 1.309137,-2.91867 2.918685,-2.91867 1.609549,0 2.918682,1.30913 2.918682,2.91867 0,1.60955 -1.309133,2.91871 -2.918682,2.91871"
         style="fill:#e6e6e6;fill-opacity:1;fill-rule:nonzero;stroke:#636663;stroke-width:0.25;stroke-miterlimit:4;stroke-dasharray:none;stroke-opacity:1" />
      <path
         inkscape:connector-curvature="0"
         id="path1690"
         d="m 94.588681,123.3764 c 0,0.99357 -0.806153,1.79974 -1.799717,1.79974 -0.993567,0 -1.79972,-0.80617 -1.79972,-1.79974 0,-0.99356 0.806153,-1.79969 1.79972,-1.79969 0.993564,0 1.799717,0.80613 1.799717,1.79969"
         style="fill:#000000;fill-opacity:1;fill-rule:nonzero;stroke:none;stroke-width:0.352778" />
    </g>
    <g
       id="g1700"
       transform="translate(-85.168964,-83.946996)"
       style="display:inline;opacity:1;mix-blend-mode:normal">
      <path
         inkscape:connector-curvature="0"
         id="path1694"
         d="m 92.788964,127.42922 c -2.235179,0 -4.05281,-1.81762 -4.05281,-4.05282 0,-2.23516 1.817631,-4.05281 4.05281,-4.05281 2.235176,0 4.05281,1.81765 4.05281,4.05281 0,2.2352 -1.817634,4.05282 -4.05281,4.05282"
         style="fill:#e6e6e6;fill-opacity:1;fill-rule:nonzero;stroke:#636663;stroke-width:0.25;stroke-miterlimit:4;stroke-dasharray:none;stroke-opacity:1" />
      <path
         inkscape:connector-curvature="0"
         id="path1696"
         d="m 92.788964,126.29511 c -1.609548,0 -2.918685,-1.30916 -2.918685,-2.91871 0,-1.60954 1.309137,-2.91867 2.918685,-2.91867 1.609549,0 2.918682,1.30913 2.918682,2.91867 0,1.60955 -1.309133,2.91871 -2.918682,2.91871"
         style="fill:#e6e6e6;fill-opacity:1;fill-rule:nonzero;stroke:#636663;stroke-width:0.25;stroke-miterlimit:4;stroke-dasharray:none;stroke-opacity:1" />
      <path
         inkscape:connector-curvature="0"
         id="path1698"
         d="m 94.588681,123.3764 c 0,0.99357 -0.806153,1.79974 -1.799717,1.79974 -0.993567,0 -1.79972,-0.80617 -1.79972,-1.79974 0,-0.99356 0.806153,-1.79969 1.79972,-1.79969 0.993564,0 1.799717,0.80613 1.799717,1.79969"
         style="fill:#000000;fill-opacity:1;fill-rule:nonzero;stroke:none;stroke-width:0.352778" />
    </g>
    <g
       id="g1708"
       transform="translate(-85.168964,-66.519208)"
       style="display:inline;mix-blend-mode:normal">
      <path
         inkscape:connector-curvature="0"
         id="path1702"
         d="m 92.788964,127.42922 c -2.235179,0 -4.05281,-1.81762 -4.05281,-4.05282 0,-2.23516 1.817631,-4.05281 4.05281,-4.05281 2.235176,0 4.05281,1.81765 4.05281,4.05281 0,2.2352 -1.817634,4.05282 -4.05281,4.05282"
         style="fill:#e6e6e6;fill-opacity:1;fill-rule:nonzero;stroke:#636663;stroke-width:0.25;stroke-miterlimit:4;stroke-dasharray:none;stroke-opacity:1" />
      <path
         inkscape:connector-curvature="0"
         id="path1704"
         d="m 92.788964,126.29511 c -1.609548,0 -2.918685,-1.30916 -2.918685,-2.91871 0,-1.60954 1.309137,-2.91867 2.918685,-2.91867 1.609549,0 2.918682,1.30913 2.918682,2.91867 0,1.60955 -1.309133,2.91871 -2.918682,2.91871"
         style="fill:#e6e6e6;fill-opacity:1;fill-rule:nonzero;stroke:#636663;stroke-width:0.25;stroke-miterlimit:4;stroke-dasharray:none;stroke-opacity:1" />
      <path
         inkscape:connector-curvature="0"
         id="path1706"
         d="m 94.588681,123.3764 c 0,0.99357 -0.806153,1.79974 -1.799717,1.79974 -0.993567,0 -1.79972,-0.80617 -1.79972,-1.79974 0,-0.99356 0.806153,-1.79969 1.79972,-1.79969 0.993564,0 1.799717,0.80613 1.799717,1.79969"
         style="fill:#000000;fill-opacity:1;fill-rule:nonzero;stroke:none;stroke-width:0.352778" />
    </g>
  </g>
  <g
     inkscape:label="components"
     inkscape:groupmode="layer"
     id="components"
     style="display:inline;opacity:1">
    <circle
       style="fill:#00ff00;stroke-width:4.10001"
       cx="9.9483337"
       cy="34.137741"
       inkscape:label="BROADCAST_1"
       id="circle1714"
       r="4.0999999" />
    <circle
       style="fill:#00ff00;stroke-width:4.10001"
       cx="20.531666"
       cy="34.137741"
       inkscape:label="BROADCAST_2"
       id="circle2067"
       r="4.0999999" />
    <rect
       style="display:inline;mix-blend-mode:normal;fill:#382d30;fill-opacity:1;stroke-width:0.999995;stroke-miterlimit:4;stroke-dasharray:none"
       id="rect1664"
       width="10.5"
       height="10.5"
       x="3.3754177"
       y="86.532211"
       rx="1"
       ry="0.99999994" />
    <rect
       style="display:inline;mix-blend-mode:normal;fill:#382d30;fill-opacity:1;stroke-width:0.999995;stroke-miterlimit:4;stroke-dasharray:none"
       id="rect2071"
       width="10.5"
       height="10.5"
       x="16.604582"
       y="86.532211"
       rx="1"
       ry="0.99999994" />
    <circle
       style="fill:#0000ff;stroke-width:4.10001"
       cx="8.6254177"
       cy="91.782181"
       inkscape:label="MONITOR_1"
       id="circle1710"
       r="4.0999999" />
    <circle
       style="fill:#0000ff;stroke-width:4.10001"
       cx="21.85458"
       cy="91.782181"
       inkscape:label="MONITOR_2"
       id="circle2069"
       r="4.0999999" />
    <circle
       style="fill:#00ff00;stroke-width:4.10001"
       cx="9.9483337"
       cy="15.637738"
       inkscape:label="LIVE_1"
       id="circle1712"
       r="4.0999999" />
    <circle
       style="fill:#00ff00;stroke-width:4.10001"
       cx="20.531666"
       cy="15.637738"
       inkscape:label="LIVE_2"
       id="circle2065"
       r="4.0999999" />
    <rect
       style="display:inline;mix-blend-mode:normal;fill:#382d30;fill-opacity:1;stroke-width:0.999995;stroke-miterlimit:4;stroke-dasharray:none"
       id="rect2894"
       width="10.5"
       height="10.5"
       x="3.1108346"
       y="107.10722"
       rx="1"
       ry="0.99999994" />
    <rect
       style="display:inline;mix-blend-mode:normal;fill:#382d30;fill-opacity:1;stroke-width:0.999995;stroke-miterlimit:4;stroke-dasharray:none"
       id="rect2073"
       width="10.5"
       height="10.5"
       x="16.869165"
       y="107.10722"
       rx="1"
       ry="0.99999994" />
    <circle
       style="fill:#0000ff;stroke-width:4.10001"
       cx="8.3608341"
       cy="112.35722"
       inkscape:label="BROADCAST_1"
       id="circle2940"
       r="4.0999999" />
    <circle
       style="fill:#0000ff;stroke-width:4.10001"
       cx="22.119165"
       cy="112.35722"
       inkscape:label="BROADCAST_2"
       id="circle2075"
       r="4.0999999" />
    <circle
       style="fill:#00ff00;stroke-width:4.10001"
       cx="9.4191694"
       cy="65.887749"
       inkscape:label="AUDITION"
       id="circle2085"
       r="4.0999999" />
    <circle
       style="fill:#0000ff;stroke-width:4.10001"
       cx="21.060831"
       cy="65.887749"
       inkscape:label="AUDITION"
       id="circle2087"
       r="4.0999999" />
    <circle
       style="fill:#ff0000;stroke-width:4.10001"
       cx="9.2075033"
       cy="55.304413"
       inkscape:label="AUDITION"
       id="circle2089"
       r="4.0999999" />
    <circle
       style="fill:#ff00ff;stroke-width:4.10001"
       cx="20.319996"
       cy="55.304413"
       inkscape:label="AUDITION"
       id="circle2197"
       r="4.0999999" />
  </g>
</svg>
