<?xml version="1.0" encoding="UTF-8" standalone="no"?>
<svg
   width="15.24mm"
   height="128.5mm"
   viewBox="0 0 15.239999 128.5"
   version="1.1"
   id="svg8"
   inkscape:version="1.2.1 (9c6d41e, 2022-07-14)"
   sodipodi:docname="PitchGate.svg"
   inkscape:export-filename="/Users/grough/Desktop/VCV Junk/Lilac Progress 20201015-2.png"
   inkscape:export-xdpi="300"
   inkscape:export-ydpi="300"
   xmlns:inkscape="http://www.inkscape.org/namespaces/inkscape"
   xmlns:sodipodi="http://sodipodi.sourceforge.net/DTD/sodipodi-0.dtd"
   xmlns="http://www.w3.org/2000/svg"
   xmlns:svg="http://www.w3.org/2000/svg"
   xmlns:rdf="http://www.w3.org/1999/02/22-rdf-syntax-ns#"
   xmlns:cc="http://creativecommons.org/ns#"
   xmlns:dc="http://purl.org/dc/elements/1.1/">
  <defs
     id="defs2">
    <inkscape:perspective
       sodipodi:type="inkscape:persp3d"
       inkscape:vp_x="0 : 64.25 : 1"
       inkscape:vp_y="0 : 1000 : 0"
       inkscape:vp_z="30.479998 : 64.25 : 1"
       inkscape:persp3d-origin="15.239998 : 42.833333 : 1"
       id="perspective3344" />
  </defs>
  <sodipodi:namedview
     id="base"
     pagecolor="#303030"
     bordercolor="#666666"
     borderopacity="1.0"
     inkscape:pageopacity="0"
     inkscape:pageshadow="2"
     inkscape:zoom="1.2991058"
     inkscape:cx="-125.47092"
     inkscape:cy="234.39199"
     inkscape:document-units="mm"
     inkscape:current-layer="components"
     inkscape:document-rotation="0"
     showgrid="false"
     inkscape:window-width="1657"
     inkscape:window-height="1027"
     inkscape:window-x="0"
     inkscape:window-y="62"
     inkscape:window-maximized="0"
     inkscape:snap-page="true"
     inkscape:snap-grids="true"
     inkscape:snap-to-guides="true"
     inkscape:snap-others="true"
     inkscape:object-nodes="false"
     inkscape:snap-nodes="true"
     inkscape:snap-global="true"
     showguides="false"
     inkscape:guide-bbox="true"
     inkscape:snap-bbox="true"
     inkscape:showpageshadow="false"
     showborder="true"
     inkscape:lockguides="false"
     inkscape:pagecheckerboard="0"
     inkscape:deskcolor="#303030">
    <sodipodi:guide
       position="23.6,30.137244"
       orientation="-1,0"
       id="guide1308"
       inkscape:locked="false"
       inkscape:label=""
       inkscape:color="rgb(0,0,255)" />
    <sodipodi:guide
       position="1.8,59.075039"
       orientation="-1,0"
       id="guide1310"
       inkscape:locked="false"
       inkscape:label=""
       inkscape:color="rgb(0,0,255)" />
    <inkscape:grid
       type="xygrid"
       id="grid3645"
       units="mm"
       spacingx="5.08"
       spacingy="32.625"
       empcolor="#3f3fff"
       empopacity="0.1254902" />
    <sodipodi:guide
       position="33.699139,10.9"
       orientation="0,1"
       id="guide4744"
       inkscape:label=""
       inkscape:locked="false"
       inkscape:color="rgb(0,0,255)" />
    <sodipodi:guide
       position="-3.2586517,27.278131"
       orientation="0,-1"
       id="guide6243"
       inkscape:locked="false" />
  </sodipodi:namedview>
  <metadata
     id="metadata5">
    <rdf:RDF>
      <cc:Work
         rdf:about="">
        <dc:format>image/svg+xml</dc:format>
        <dc:type
           rdf:resource="http://purl.org/dc/dcmitype/StillImage" />
      </cc:Work>
    </rdf:RDF>
  </metadata>
  <g
     inkscape:groupmode="layer"
     id="layer6"
     inkscape:label="Panel"
     style="display:inline">
    <rect
       style="display:inline;opacity:1;mix-blend-mode:normal;fill:#dad5d5;fill-opacity:1;fill-rule:evenodd;stroke-width:0.264583"
       id="rect28"
       width="15.24"
       height="128.5"
       x="-1.5894572e-07"
       y="6.6613381e-15" />
  </g>
  <g
     inkscape:groupmode="layer"
     id="layer2"
     inkscape:label="Panel graphics"
     style="display:inline">
    <circle
       style="display:inline;mix-blend-mode:normal;fill:#d7b7bf;fill-opacity:1;stroke-width:0.91392;stroke-miterlimit:4;stroke-dasharray:none"
       id="circle3672"
       cx="21.96748"
       cy="-68.954971"
       transform="scale(1,-1)"
       r="0" />
    <circle
       style="display:inline;mix-blend-mode:normal;fill:#d7b7bf;fill-opacity:1;stroke-width:0.91425"
       id="circle3727"
       cx="21.950937"
       cy="88.485794"
       r="0" />
    <circle
       style="display:inline;mix-blend-mode:normal;fill:#d7b7bf;fill-opacity:1;stroke-width:0.91392;stroke-miterlimit:4;stroke-dasharray:none"
       id="circle3831"
       cx="21.967365"
       cy="-26.40794"
       transform="scale(1,-1)"
       r="0" />
    <circle
       style="display:inline;mix-blend-mode:normal;fill:#d7b7bf;fill-opacity:1;stroke-width:0.91392;stroke-miterlimit:4;stroke-dasharray:none"
       id="ellipse5996"
       cx="21.96748"
       cy="-68.954971"
       transform="scale(1,-1)"
       r="0" />
    <circle
       style="display:inline;mix-blend-mode:normal;fill:#d7b7bf;fill-opacity:1;stroke-width:0.91392;stroke-miterlimit:4;stroke-dasharray:none"
       id="ellipse5998"
       cx="21.96748"
       cy="-68.954971"
       transform="scale(1,-1)"
       r="0" />
    <circle
       style="display:inline;mix-blend-mode:normal;fill:#d7b7bf;fill-opacity:1;stroke-width:0.91392;stroke-miterlimit:4;stroke-dasharray:none"
       id="ellipse6000"
       cx="21.96748"
       cy="-63.663303"
       transform="scale(1,-1)"
       r="0" />
    <g
       id="g3371"
       transform="matrix(0.92400001,0,0,0.92400001,-6.7867745,8.4160066)"
       style="display:inline;mix-blend-mode:normal;fill:#d7b7bf;fill-opacity:1">
      <g
         id="g2422"
         transform="matrix(1.1618277,0,0,1.1618277,-2.1847927,-20.500906)"
         style="fill:#d7b7bf;fill-opacity:1">
        <path
           id="path2410"
           style="display:inline;fill:#d7b7bf;fill-opacity:1;stroke-width:0.0131509"
           d="m 16.520736,121.57901 c -0.01732,0 -0.08726,0.0184 -0.155505,0.0412 -0.137907,0.046 -0.194703,0.0924 -0.289823,0.23706 -0.05137,0.0782 -0.06018,0.11007 -0.104735,0.38538 -0.02537,0.1568 -0.04146,0.19108 -0.08955,0.19108 -0.03125,0 -0.120663,0.052 -0.13472,0.0783 -0.0077,0.014 -0.01361,0.0377 -0.01361,0.0527 0,0.0389 0.09788,0.14024 0.144312,0.14951 0.05137,0.0102 0.07179,0.0499 0.05438,0.10475 -0.0077,0.0231 -0.01346,0.0908 -0.01361,0.1503 -1.47e-4,0.066 -0.01084,0.15043 -0.02762,0.21587 -0.0171,0.067 -0.02452,0.12528 -0.01958,0.15471 0.0046,0.026 -7.73e-4,0.10583 -0.01161,0.1775 -0.02097,0.13905 -0.01679,0.16183 0.0352,0.19828 0.03644,0.0256 0.174551,0.0144 0.210275,-0.0168 0.03597,-0.0314 0.0646,-0.1691 0.08915,-0.43015 0.0077,-0.0795 0.02297,-0.18007 0.03434,-0.22346 0.01137,-0.0434 0.02035,-0.0879 0.02003,-0.0987 -0.0016,-0.0504 0.01516,-0.12069 0.0328,-0.13832 0.02275,-0.0228 0.225135,-0.027 0.329399,-0.007 0.03474,0.006 0.116393,0.0192 0.18149,0.028 0.13851,0.0188 0.305093,0.0587 0.329801,0.0792 0.02893,0.024 0.04564,0.14143 0.04958,0.34818 0.0046,0.23072 0.02614,0.30228 0.115133,0.37378 0.04556,0.0367 0.05887,0.0408 0.103938,0.0332 0.06645,-0.0112 0.163497,-0.0857 0.182287,-0.13951 0.01903,-0.0547 0.01895,-0.1078 -7.73e-4,-0.12753 -0.0087,-0.009 -0.02019,-0.0467 -0.02522,-0.0848 -0.0046,-0.038 -0.01825,-0.0926 -0.02955,-0.12153 -0.01563,-0.0397 -0.01911,-0.08 -0.01361,-0.1643 0.0046,-0.0671 0.0016,-0.13556 -0.0077,-0.17109 -0.0084,-0.0326 -0.02004,-0.0798 -0.0256,-0.10514 -0.0088,-0.0395 -0.03806,-0.10067 -0.125521,-0.26304 -0.0097,-0.0181 -0.03613,-0.0927 -0.0588,-0.1659 -0.0533,-0.17249 -0.143399,-0.35493 -0.203468,-0.41216 -0.02614,-0.0249 -0.04758,-0.0531 -0.04758,-0.0627 0,-0.0296 -0.105586,-0.11764 -0.183092,-0.1523 -0.117004,-0.0523 -0.29673,-0.11433 -0.331,-0.11433 z m -0.0256,0.3306 c 0.05415,-0.004 0.129212,0.0151 0.19229,0.0511 0.108433,0.062 0.17336,0.16081 0.235455,0.35778 0.04077,0.1294 0.03752,0.17511 -0.01401,0.19469 -0.04146,0.0158 -0.0492,0.0152 -0.130317,-0.008 -0.04262,-0.0123 -0.119016,-0.0182 -0.217076,-0.0168 -0.161323,0.003 -0.257773,-0.0165 -0.269036,-0.0532 -0.0069,-0.0237 0.01137,-0.20014 0.03117,-0.29344 0.01702,-0.0802 0.08449,-0.1987 0.125521,-0.22066 0.01215,-0.006 0.02792,-0.0103 0.04595,-0.0116 z" />
        <path
           style="display:inline;fill:#d7b7bf;fill-opacity:1;stroke-width:0.0131509"
           d="m 16.022068,120.81791 c -0.0039,-0.0105 -0.0069,-0.008 -0.0079,0.008 -5.57e-4,0.0138 0.0023,0.0216 0.0069,0.0173 0.0046,-0.004 0.0046,-0.0157 7.74e-4,-0.0252 z"
           id="path2412" />
        <path
           style="display:inline;fill:#d7b7bf;fill-opacity:1;stroke-width:0.014294"
           d="m 18.500858,123.53883 c -0.03144,-0.0122 -0.08223,-0.0416 -0.112948,-0.0653 -0.03069,-0.0237 -0.07963,-0.0514 -0.10877,-0.0614 -0.08538,-0.0294 -0.186781,-0.0948 -0.230295,-0.14862 -0.02607,-0.0322 -0.05347,-0.0981 -0.07736,-0.18568 -0.03102,-0.11402 -0.03767,-0.17233 -0.04137,-0.36444 -0.0033,-0.15317 0.0018,-0.25232 0.01387,-0.30018 0.02473,-0.0963 0.08357,-0.22511 0.114648,-0.25072 0.01395,-0.0114 0.04658,-0.054 0.07264,-0.0947 0.02607,-0.0406 0.06836,-0.0885 0.09412,-0.10642 0.02573,-0.0179 0.07576,-0.0579 0.111115,-0.0886 0.05776,-0.0504 0.157984,-0.10416 0.361312,-0.19405 0.07214,-0.0319 0.196343,-0.0403 0.256773,-0.0174 0.01866,0.007 0.07105,0.0583 0.116397,0.11373 0.08248,0.10083 0.08248,0.10083 0.07248,0.18134 -0.01176,0.0941 -0.07509,0.18918 -0.140368,0.21084 -0.06752,0.0223 -0.146557,-0.01 -0.18024,-0.0726 -0.05735,-0.10764 -0.05735,-0.10762 -0.150829,-0.0717 -0.06189,0.0236 -0.104489,0.0544 -0.169023,0.12191 -0.04751,0.0496 -0.09952,0.11471 -0.115664,0.1446 -0.09048,0.16747 -0.10539,0.20067 -0.114429,0.25485 -0.0051,0.0328 -0.0033,0.0822 0.0042,0.11004 0.0085,0.0308 0.009,0.0725 0.0018,0.10676 -0.009,0.0398 -0.0067,0.0803 0.009,0.13929 0.02841,0.10926 0.06752,0.16997 0.124342,0.19342 0.02548,0.0104 0.09017,0.0461 0.143765,0.0791 0.06163,0.038 0.122719,0.0635 0.166291,0.0695 0.09566,0.0131 0.395836,-0.0183 0.465265,-0.0486 0.03144,-0.0138 0.07467,-0.0294 0.09611,-0.0349 0.02144,-0.004 0.06323,-0.0263 0.09292,-0.0463 0.04095,-0.0278 0.06432,-0.0343 0.09685,-0.0275 0.02354,0.004 0.07383,0.0142 0.111603,0.0205 0.09756,0.0162 0.167216,0.085 0.166913,0.16473 -1.59e-4,0.0319 -0.0051,0.0651 -0.01068,0.0738 -0.02262,0.0343 -0.163465,0.091 -0.347095,0.13959 -0.168097,0.0445 -0.226443,0.0526 -0.463868,0.0655 -0.334221,0.018 -0.357596,0.0175 -0.428823,-0.0102 z"
           id="path2414" />
        <path
           style="display:inline;fill:#d7b7bf;fill-opacity:1;stroke-width:0.0131509"
           d="m 13.045297,123.78274 c -0.05353,-0.0535 -0.0632,-0.135 -0.08731,-0.73954 -0.0039,-0.0976 -0.01253,-0.21896 -0.01926,-0.26959 -0.03767,-0.28553 -0.0062,-0.99891 0.05508,-1.23893 0.0077,-0.0305 0.01029,-0.0705 0.0054,-0.0889 -0.01191,-0.0475 0.03411,-0.10436 0.111527,-0.13766 0.07856,-0.0338 0.105052,-0.034 0.146896,-7.7e-4 0.01818,0.0143 0.04858,0.032 0.06753,0.0392 0.0321,0.0122 0.03442,0.0187 0.03442,0.0963 0,0.0457 -0.0054,0.0888 -0.01183,0.0957 -0.0062,0.007 -0.02228,0.10423 -0.03496,0.21634 -0.03613,0.31903 -0.03133,1.27168 0.008,1.5781 0.0069,0.0542 0.01555,0.1676 0.01903,0.2519 0.0062,0.15329 0.0062,0.15329 -0.03999,0.19398 -0.0417,0.0366 -0.05493,0.0407 -0.132383,0.0407 -0.07643,0 -0.0901,-0.004 -0.122389,-0.0363 z"
           id="path2416" />
        <path
           style="display:inline;fill:#d7b7bf;fill-opacity:1;stroke-width:0.0131509"
           d="m 11.385862,123.65354 c -0.188018,-0.0122 -0.256791,-0.0393 -0.400901,-0.15851 -0.0584,-0.0483 -0.05979,-0.0519 -0.09036,-0.23859 -0.0054,-0.0338 -0.01818,-0.0712 -0.02808,-0.0831 -0.01408,-0.017 -0.01787,-0.0862 -0.01748,-0.31997 7.73e-4,-0.54251 0.0304,-0.87294 0.09937,-1.11649 0.05083,-0.17941 0.06282,-0.19533 0.176423,-0.23394 0.06962,-0.0236 0.06962,-0.0236 0.121205,0.0121 0.02839,0.0196 0.06514,0.0613 0.08175,0.0927 0.03017,0.0569 0.03017,0.0569 -0.01485,0.14712 -0.03164,0.0633 -0.04394,0.10414 -0.04108,0.13703 0.0023,0.0258 -0.0082,0.079 -0.02313,0.11837 -0.01973,0.0519 -0.02715,0.10215 -0.02723,0.18338 -7e-6,0.0615 -0.0062,0.13254 -0.0133,0.15781 -0.01772,0.0611 -0.01895,0.6478 -0.0016,0.72321 0.04371,0.18878 0.06738,0.2284 0.165098,0.27569 0.05229,0.0253 0.08233,0.0173 0.174673,0.007 0.126511,-0.0106 0.255351,-0.0253 0.286302,-0.0327 0.03095,-0.007 0.0697,-0.01 0.08609,-0.006 0.0164,0.004 0.05709,-0.002 0.09044,-0.013 0.104767,-0.0356 0.191825,-0.0323 0.263637,0.01 0.03845,0.0226 0.06243,0.046 0.06243,0.0607 0,0.0532 -0.04348,0.14222 -0.09534,0.19507 -0.05477,0.0559 -0.05477,0.0559 -0.213153,0.0561 -0.0871,10e-5 -0.223457,0.005 -0.303021,0.0124 -0.07955,0.007 -0.177204,0.0149 -0.216989,0.0181 -0.03976,0.004 -0.03417,0.002 -0.120963,-0.004 z"
           id="path2418"
           sodipodi:nodetypes="cscccscccccccccsccsccscscccc" />
        <path
           style="display:inline;fill:#d7b7bf;fill-opacity:1;stroke-width:0.0131509"
           d="m 14.558846,123.65354 c -0.188018,-0.0122 -0.256791,-0.0393 -0.400901,-0.15851 -0.0584,-0.0483 -0.05979,-0.0519 -0.09036,-0.23859 -0.0054,-0.0338 -0.01818,-0.0712 -0.02808,-0.0831 -0.01408,-0.017 -0.01787,-0.0862 -0.01748,-0.31997 7.73e-4,-0.54251 0.0304,-0.87294 0.09937,-1.11649 0.05083,-0.17941 0.06282,-0.19533 0.176423,-0.23394 0.06962,-0.0236 0.06962,-0.0236 0.121205,0.0121 0.02839,0.0196 0.06514,0.0613 0.08175,0.0927 0.03017,0.0569 0.03017,0.0569 -0.01485,0.14712 -0.03164,0.0633 -0.04394,0.10414 -0.04108,0.13703 0.0023,0.0258 -0.0082,0.079 -0.02313,0.11837 -0.01973,0.0519 -0.02715,0.10215 -0.02723,0.18338 -7e-6,0.0615 -0.0062,0.13254 -0.0133,0.15781 -0.01772,0.0611 -0.01895,0.6478 -0.0016,0.72321 0.04371,0.18878 0.06738,0.2284 0.165098,0.27569 0.05229,0.0253 0.08233,0.0173 0.174673,0.007 0.126511,-0.0106 0.255351,-0.0253 0.286302,-0.0327 0.03095,-0.007 0.0697,-0.01 0.08609,-0.006 0.0164,0.004 0.05709,-0.002 0.09044,-0.013 0.104767,-0.0356 0.191825,-0.0323 0.263637,0.01 0.03845,0.0226 0.06243,0.046 0.06243,0.0607 0,0.0532 -0.04348,0.14222 -0.09534,0.19507 -0.05477,0.0559 -0.05477,0.0559 -0.213153,0.0561 -0.0871,10e-5 -0.223457,0.005 -0.303021,0.0124 -0.07955,0.007 -0.177204,0.0149 -0.216989,0.0181 -0.03976,0.004 -0.03417,0.002 -0.120963,-0.004 z"
           id="path2420"
           sodipodi:nodetypes="cscccscccccccccsccsccscscccc" />
      </g>
    </g>
    <rect
       style="display:inline;mix-blend-mode:normal;fill:#382d30;fill-opacity:1;stroke-width:0.999995;stroke-miterlimit:4;stroke-dasharray:none"
       id="rect2894"
       width="10.5"
       height="10.5"
       x="2.3699999"
       y="107.10722"
       rx="1"
       ry="0.99999994" />
    <path
       style="display:inline;opacity:1;mix-blend-mode:normal;fill:none;stroke:#382d30;stroke-width:0.3;stroke-linecap:butt;stroke-linejoin:miter;stroke-miterlimit:4;stroke-dasharray:none;stroke-opacity:1"
       d="M 11.959358,63.969725 H 3.2806419"
       id="path2767"
       sodipodi:nodetypes="cc" />
    <rect
       style="display:inline;mix-blend-mode:normal;fill:#382d30;fill-opacity:1;stroke-width:0.999995;stroke-miterlimit:4;stroke-dasharray:none"
       id="rect1664"
       width="10.5"
       height="10.5"
       x="2.3699999"
       y="51.607224"
       rx="1"
       ry="0.99999994" />
  </g>
  <g
     inkscape:groupmode="layer"
     id="layer3"
     inkscape:label="Ref"
     style="display:none">
    <rect
       style="display:inline;opacity:0.2;mix-blend-mode:normal;fill:#0000ff;fill-opacity:1;stroke-width:0.999995;stroke-miterlimit:4;stroke-dasharray:none"
       id="rect2986"
       width="10.5"
       height="2"
       x="23.536665"
       y="117.60722" />
    <rect
       style="display:inline;opacity:0.2;mix-blend-mode:normal;fill:#0000ff;fill-opacity:1;stroke-width:0.999998;stroke-miterlimit:4;stroke-dasharray:none"
       id="rect925"
       width="10.5"
       height="18.5"
       x="11.895"
       y="99.107224" />
    <rect
       style="display:inline;opacity:0.2;mix-blend-mode:normal;fill:#0000ff;fill-opacity:1;stroke-width:0.999998;stroke-miterlimit:4;stroke-dasharray:none"
       id="rect3021"
       width="10.5"
       height="18.5"
       x="12.424166"
       y="80.607224" />
    <rect
       style="display:inline;opacity:0.2;mix-blend-mode:normal;fill:#0000ff;fill-opacity:1;stroke-width:0.999987;stroke-miterlimit:4;stroke-dasharray:none"
       id="rect3027"
       width="10.5"
       height="1.8000001"
       x="-8.0566092"
       y="86.80722" />
    <rect
       style="display:inline;opacity:0.2;mix-blend-mode:normal;fill:#0000ff;fill-opacity:1;stroke-width:0.999987;stroke-miterlimit:4;stroke-dasharray:none"
       id="rect3044"
       width="10.5"
       height="1.8000001"
       x="-8.0566092"
       y="68.30722" />
    <rect
       style="display:inline;opacity:0.2;mix-blend-mode:normal;fill:#0000ff;fill-opacity:1;stroke-width:0.999987;stroke-miterlimit:4;stroke-dasharray:none"
       id="rect3048"
       width="10.5"
       height="1.8000001"
       x="2.5267246"
       y="105.30722" />
    <rect
       style="display:inline;opacity:0.2;mix-blend-mode:normal;fill:#0000ff;fill-opacity:1;stroke-width:0.999998;stroke-miterlimit:4;stroke-dasharray:none"
       id="rect1633"
       width="10.5"
       height="18.5"
       x="14.011664"
       y="62.107224" />
    <rect
       style="display:inline;opacity:0.2;mix-blend-mode:normal;fill:#0000ff;fill-opacity:1;stroke-width:0.999987;stroke-miterlimit:4;stroke-dasharray:none"
       id="rect1592"
       width="10.5"
       height="1.8000001"
       x="27.743849"
       y="50.32193" />
    <rect
       style="display:inline;opacity:0.2;mix-blend-mode:normal;fill:#0000ff;fill-opacity:1;stroke-width:0.999998;stroke-miterlimit:4;stroke-dasharray:none"
       id="rect1652"
       width="10.5"
       height="18.5"
       x="14.011664"
       y="43.607224" />
    <rect
       style="display:inline;opacity:0.2;mix-blend-mode:normal;fill:#0000ff;fill-opacity:1;stroke-width:0.999998;stroke-miterlimit:4;stroke-dasharray:none"
       id="rect1731"
       width="10.5"
       height="18.5"
       x="15.599163"
       y="25.107224" />
  </g>
  <g
     inkscape:groupmode="layer"
     id="layer11"
     inkscape:label="Screws"
     style="display:none">
    <g
       transform="matrix(0.32902218,0,0,-0.32902194,-168.63328,212.14136)"
       id="g18792"
       style="display:inline;opacity:1;mix-blend-mode:normal;stroke-width:1.14853">
      <path
         d="m 535.6665,631.5 c -3.511,0 -6.367,2.855 -6.367,6.366 0,3.511 2.856,6.367 6.367,6.367 3.511,0 6.367,-2.856 6.367,-6.367 0,-3.511 -2.856,-6.366 -6.367,-6.366"
         style="fill:#bcbcbc;fill-opacity:1;fill-rule:nonzero;stroke:#acacac;stroke-width:1.06117;stroke-miterlimit:4;stroke-dasharray:none;stroke-opacity:1"
         id="path6833"
         inkscape:connector-curvature="0" />
      <path
         inkscape:connector-curvature="0"
         id="path6843"
         style="fill:#727272;fill-opacity:1;fill-rule:nonzero;stroke:none;stroke-width:1.14853"
         d="m 536.448,633.741 h -1.562 v 8.25 h 1.562 z" />
      <path
         inkscape:connector-curvature="0"
         id="path6845"
         style="fill:#727272;fill-opacity:1;fill-rule:nonzero;stroke:none;stroke-width:1.14853"
         d="m 539.792,637.085 h -8.25 v 1.562 h 8.25 z" />
    </g>
    <g
       transform="matrix(0.32902218,0,0,-0.32902194,-168.63328,336.10277)"
       id="g3251"
       style="display:inline;opacity:1;mix-blend-mode:normal;stroke-width:1.14853">
      <path
         d="m 535.6665,631.5 c -3.511,0 -6.367,2.855 -6.367,6.366 0,3.511 2.856,6.367 6.367,6.367 3.511,0 6.367,-2.856 6.367,-6.367 0,-3.511 -2.856,-6.366 -6.367,-6.366"
         style="fill:#bcbcbc;fill-opacity:1;fill-rule:nonzero;stroke:#acacac;stroke-width:1.06117;stroke-miterlimit:4;stroke-dasharray:none;stroke-opacity:1"
         id="path3245"
         inkscape:connector-curvature="0" />
      <path
         inkscape:connector-curvature="0"
         id="path3247"
         style="fill:#727272;fill-opacity:1;fill-rule:nonzero;stroke:none;stroke-width:1.14853"
         d="m 536.448,633.741 h -1.562 v 8.25 h 1.562 z" />
      <path
         inkscape:connector-curvature="0"
         id="path3249"
         style="fill:#727272;fill-opacity:1;fill-rule:nonzero;stroke:none;stroke-width:1.14853"
         d="m 539.792,637.085 h -8.25 v 1.562 h 8.25 z" />
    </g>
  </g>
  <g
     inkscape:label="Control mocks"
     inkscape:groupmode="layer"
     id="layer1"
     style="display:none;opacity:1;mix-blend-mode:normal">
    <g
       id="g2922"
       transform="translate(-85.168964,-46.946996)"
       style="display:inline;opacity:1;mix-blend-mode:normal">
      <path
         inkscape:connector-curvature="0"
         id="path2916"
         d="m 92.788964,127.42922 c -2.235179,0 -4.05281,-1.81762 -4.05281,-4.05282 0,-2.23516 1.817631,-4.05281 4.05281,-4.05281 2.235176,0 4.05281,1.81765 4.05281,4.05281 0,2.2352 -1.817634,4.05282 -4.05281,4.05282"
         style="fill:#e6e6e6;fill-opacity:1;fill-rule:nonzero;stroke:#636663;stroke-width:0.25;stroke-miterlimit:4;stroke-dasharray:none;stroke-opacity:1" />
      <path
         inkscape:connector-curvature="0"
         id="path2918"
         d="m 92.788964,126.29511 c -1.609548,0 -2.918685,-1.30916 -2.918685,-2.91871 0,-1.60954 1.309137,-2.91867 2.918685,-2.91867 1.609549,0 2.918682,1.30913 2.918682,2.91867 0,1.60955 -1.309133,2.91871 -2.918682,2.91871"
         style="fill:#e6e6e6;fill-opacity:1;fill-rule:nonzero;stroke:#636663;stroke-width:0.25;stroke-miterlimit:4;stroke-dasharray:none;stroke-opacity:1" />
      <path
         inkscape:connector-curvature="0"
         id="path2920"
         d="m 94.588681,123.3764 c 0,0.99357 -0.806153,1.79974 -1.799717,1.79974 -0.993567,0 -1.79972,-0.80617 -1.79972,-1.79974 0,-0.99356 0.806153,-1.79969 1.79972,-1.79969 0.993564,0 1.799717,0.80613 1.799717,1.79969"
         style="fill:#000000;fill-opacity:1;fill-rule:nonzero;stroke:none;stroke-width:0.352778" />
    </g>
    <g
       id="g2930"
       transform="translate(-85.168964,-28.446996)"
       style="display:inline;opacity:1;mix-blend-mode:normal">
      <path
         inkscape:connector-curvature="0"
         id="path2924"
         d="m 92.788964,127.42922 c -2.235179,0 -4.05281,-1.81762 -4.05281,-4.05282 0,-2.23516 1.817631,-4.05281 4.05281,-4.05281 2.235176,0 4.05281,1.81765 4.05281,4.05281 0,2.2352 -1.817634,4.05282 -4.05281,4.05282"
         style="fill:#e6e6e6;fill-opacity:1;fill-rule:nonzero;stroke:#636663;stroke-width:0.25;stroke-miterlimit:4;stroke-dasharray:none;stroke-opacity:1" />
      <path
         inkscape:connector-curvature="0"
         id="path2926"
         d="m 92.788964,126.29511 c -1.609548,0 -2.918685,-1.30916 -2.918685,-2.91871 0,-1.60954 1.309137,-2.91867 2.918685,-2.91867 1.609549,0 2.918682,1.30913 2.918682,2.91867 0,1.60955 -1.309133,2.91871 -2.918682,2.91871"
         style="fill:#e6e6e6;fill-opacity:1;fill-rule:nonzero;stroke:#636663;stroke-width:0.25;stroke-miterlimit:4;stroke-dasharray:none;stroke-opacity:1" />
      <path
         inkscape:connector-curvature="0"
         id="path2928"
         d="m 94.588681,123.3764 c 0,0.99357 -0.806153,1.79974 -1.799717,1.79974 -0.993567,0 -1.79972,-0.80617 -1.79972,-1.79974 0,-0.99356 0.806153,-1.79969 1.79972,-1.79969 0.993564,0 1.799717,0.80613 1.799717,1.79969"
         style="fill:#000000;fill-opacity:1;fill-rule:nonzero;stroke:none;stroke-width:0.352778" />
    </g>
    <g
       id="g2938"
       transform="translate(-85.168964,-11.019181)"
       style="display:inline;mix-blend-mode:normal">
      <path
         inkscape:connector-curvature="0"
         id="path2932"
         d="m 92.788964,127.42922 c -2.235179,0 -4.05281,-1.81762 -4.05281,-4.05282 0,-2.23516 1.817631,-4.05281 4.05281,-4.05281 2.235176,0 4.05281,1.81765 4.05281,4.05281 0,2.2352 -1.817634,4.05282 -4.05281,4.05282"
         style="fill:#e6e6e6;fill-opacity:1;fill-rule:nonzero;stroke:#636663;stroke-width:0.25;stroke-miterlimit:4;stroke-dasharray:none;stroke-opacity:1" />
      <path
         inkscape:connector-curvature="0"
         id="path2934"
         d="m 92.788964,126.29511 c -1.609548,0 -2.918685,-1.30916 -2.918685,-2.91871 0,-1.60954 1.309137,-2.91867 2.918685,-2.91867 1.609549,0 2.918682,1.30913 2.918682,2.91867 0,1.60955 -1.309133,2.91871 -2.918682,2.91871"
         style="fill:#e6e6e6;fill-opacity:1;fill-rule:nonzero;stroke:#636663;stroke-width:0.25;stroke-miterlimit:4;stroke-dasharray:none;stroke-opacity:1" />
      <path
         inkscape:connector-curvature="0"
         id="path2936"
         d="m 94.588681,123.3764 c 0,0.99357 -0.806153,1.79974 -1.799717,1.79974 -0.993567,0 -1.79972,-0.80617 -1.79972,-1.79974 0,-0.99356 0.806153,-1.79969 1.79972,-1.79969 0.993564,0 1.799717,0.80613 1.799717,1.79969"
         style="fill:#000000;fill-opacity:1;fill-rule:nonzero;stroke:none;stroke-width:0.352778" />
    </g>
    <g
       id="g1692"
       transform="translate(-85.168964,-102.447)"
       style="display:inline;opacity:1;mix-blend-mode:normal">
      <path
         inkscape:connector-curvature="0"
         id="path1686"
         d="m 92.788964,127.42922 c -2.235179,0 -4.05281,-1.81762 -4.05281,-4.05282 0,-2.23516 1.817631,-4.05281 4.05281,-4.05281 2.235176,0 4.05281,1.81765 4.05281,4.05281 0,2.2352 -1.817634,4.05282 -4.05281,4.05282"
         style="fill:#e6e6e6;fill-opacity:1;fill-rule:nonzero;stroke:#636663;stroke-width:0.25;stroke-miterlimit:4;stroke-dasharray:none;stroke-opacity:1" />
      <path
         inkscape:connector-curvature="0"
         id="path1688"
         d="m 92.788964,126.29511 c -1.609548,0 -2.918685,-1.30916 -2.918685,-2.91871 0,-1.60954 1.309137,-2.91867 2.918685,-2.91867 1.609549,0 2.918682,1.30913 2.918682,2.91867 0,1.60955 -1.309133,2.91871 -2.918682,2.91871"
         style="fill:#e6e6e6;fill-opacity:1;fill-rule:nonzero;stroke:#636663;stroke-width:0.25;stroke-miterlimit:4;stroke-dasharray:none;stroke-opacity:1" />
      <path
         inkscape:connector-curvature="0"
         id="path1690"
         d="m 94.588681,123.3764 c 0,0.99357 -0.806153,1.79974 -1.799717,1.79974 -0.993567,0 -1.79972,-0.80617 -1.79972,-1.79974 0,-0.99356 0.806153,-1.79969 1.79972,-1.79969 0.993564,0 1.799717,0.80613 1.799717,1.79969"
         style="fill:#000000;fill-opacity:1;fill-rule:nonzero;stroke:none;stroke-width:0.352778" />
    </g>
    <g
       id="g1700"
       transform="translate(-85.168964,-83.946996)"
       style="display:inline;opacity:1;mix-blend-mode:normal">
      <path
         inkscape:connector-curvature="0"
         id="path1694"
         d="m 92.788964,127.42922 c -2.235179,0 -4.05281,-1.81762 -4.05281,-4.05282 0,-2.23516 1.817631,-4.05281 4.05281,-4.05281 2.235176,0 4.05281,1.81765 4.05281,4.05281 0,2.2352 -1.817634,4.05282 -4.05281,4.05282"
         style="fill:#e6e6e6;fill-opacity:1;fill-rule:nonzero;stroke:#636663;stroke-width:0.25;stroke-miterlimit:4;stroke-dasharray:none;stroke-opacity:1" />
      <path
         inkscape:connector-curvature="0"
         id="path1696"
         d="m 92.788964,126.29511 c -1.609548,0 -2.918685,-1.30916 -2.918685,-2.91871 0,-1.60954 1.309137,-2.91867 2.918685,-2.91867 1.609549,0 2.918682,1.30913 2.918682,2.91867 0,1.60955 -1.309133,2.91871 -2.918682,2.91871"
         style="fill:#e6e6e6;fill-opacity:1;fill-rule:nonzero;stroke:#636663;stroke-width:0.25;stroke-miterlimit:4;stroke-dasharray:none;stroke-opacity:1" />
      <path
         inkscape:connector-curvature="0"
         id="path1698"
         d="m 94.588681,123.3764 c 0,0.99357 -0.806153,1.79974 -1.799717,1.79974 -0.993567,0 -1.79972,-0.80617 -1.79972,-1.79974 0,-0.99356 0.806153,-1.79969 1.79972,-1.79969 0.993564,0 1.799717,0.80613 1.799717,1.79969"
         style="fill:#000000;fill-opacity:1;fill-rule:nonzero;stroke:none;stroke-width:0.352778" />
    </g>
    <g
       id="g1708"
       transform="translate(-85.168964,-66.519208)"
       style="display:inline;mix-blend-mode:normal">
      <path
         inkscape:connector-curvature="0"
         id="path1702"
         d="m 92.788964,127.42922 c -2.235179,0 -4.05281,-1.81762 -4.05281,-4.05282 0,-2.23516 1.817631,-4.05281 4.05281,-4.05281 2.235176,0 4.05281,1.81765 4.05281,4.05281 0,2.2352 -1.817634,4.05282 -4.05281,4.05282"
         style="fill:#e6e6e6;fill-opacity:1;fill-rule:nonzero;stroke:#636663;stroke-width:0.25;stroke-miterlimit:4;stroke-dasharray:none;stroke-opacity:1" />
      <path
         inkscape:connector-curvature="0"
         id="path1704"
         d="m 92.788964,126.29511 c -1.609548,0 -2.918685,-1.30916 -2.918685,-2.91871 0,-1.60954 1.309137,-2.91867 2.918685,-2.91867 1.609549,0 2.918682,1.30913 2.918682,2.91867 0,1.60955 -1.309133,2.91871 -2.918682,2.91871"
         style="fill:#e6e6e6;fill-opacity:1;fill-rule:nonzero;stroke:#636663;stroke-width:0.25;stroke-miterlimit:4;stroke-dasharray:none;stroke-opacity:1" />
      <path
         inkscape:connector-curvature="0"
         id="path1706"
         d="m 94.588681,123.3764 c 0,0.99357 -0.806153,1.79974 -1.799717,1.79974 -0.993567,0 -1.79972,-0.80617 -1.79972,-1.79974 0,-0.99356 0.806153,-1.79969 1.79972,-1.79969 0.993564,0 1.799717,0.80613 1.799717,1.79969"
         style="fill:#000000;fill-opacity:1;fill-rule:nonzero;stroke:none;stroke-width:0.352778" />
    </g>
  </g>
  <g
     inkscape:label="components"
     inkscape:groupmode="layer"
     id="components"
     style="display:inline;opacity:1">
    <circle
       style="fill:#0000ff;stroke-width:4.10001"
       cx="7.6199999"
       cy="112.35722"
       inkscape:label="GATE_2"
       id="circle2940"
       r="4.0999999" />
    <circle
       style="fill:#00ff00;stroke-width:4.10001"
       cx="7.6199999"
       cy="76.429405"
       inkscape:label="PITCH_2"
       id="circle2942"
       r="4.0999999" />
    <circle
       style="fill:#00ff00;stroke-width:4.10001"
       cx="7.6199999"
       cy="94.929405"
       inkscape:label="TRIG_2"
       id="circle2944"
       r="4.0999999" />
    <circle
       style="fill:#0000ff;stroke-width:4.10001"
       cx="7.6199999"
       cy="56.857197"
       inkscape:label="GATE_1"
       id="circle1710"
       r="4.0999999" />
    <circle
       style="fill:#00ff00;stroke-width:4.10001"
       cx="7.6199999"
       cy="20.929405"
       inkscape:label="PITCH_1"
       id="circle1712"
       r="4.0999999" />
    <circle
       style="fill:#00ff00;stroke-width:4.10001"
       cx="7.6199999"
       cy="39.429409"
       inkscape:label="TRIG_1"
       id="circle1714"
       r="4.0999999" />
    <g
       aria-label="PITCH"
       id="text7974"
       style="font-weight:bold;font-size:2.82222px;font-family:Helvetica;-inkscape-font-specification:'Helvetica Bold';letter-spacing:0.0529167px;fill:#382d30;stroke-width:0.2">
      <path
         d="M 4.2903195,13.092678 H 3.8589938 v 0.73036 H 3.4373145 v -2.031227 h 0.8846998 q 0.3059243,0 0.4878252,0.157097 0.1819009,0.157096 0.1819009,0.486447 0,0.359667 -0.1819009,0.508495 -0.1819009,0.148828 -0.51952,0.148828 z m 0.1984373,-0.423057 q 0.082682,-0.07304 0.082682,-0.23151 0,-0.158475 -0.08406,-0.225998 -0.082682,-0.06752 -0.2328883,-0.06752 H 3.8589938 v 0.598068 h 0.3954967 q 0.150206,0 0.2342663,-0.07304 z"
         id="path8069" />
      <path
         d="m 5.3808271,11.791811 h 0.4216794 v 2.031227 H 5.3808271 Z"
         id="path8071" />
      <path
         d="m 7.8286306,11.791811 v 0.359668 H 7.2209162 v 1.671559 H 6.7937247 V 12.151479 H 6.1832542 v -0.359668 z"
         id="path8073" />
      <path
         d="m 9.5627526,13.671454 q -0.2273761,0.208084 -0.5815317,0.208084 -0.4382158,0 -0.6890186,-0.28112 -0.2508027,-0.282498 -0.2508027,-0.774457 0,-0.531922 0.2852537,-0.819932 0.2480467,-0.250803 0.631141,-0.250803 0.5126298,0 0.7496522,0.336241 0.1309135,0.188791 0.1405598,0.378961 H 9.4235708 Q 9.3822297,12.322356 9.317462,12.247942 9.2017069,12.11565 8.9743307,12.11565 q -0.2315102,0 -0.3651798,0.187413 -0.1336696,0.186035 -0.1336696,0.527788 0,0.341754 0.1405598,0.51263 0.1419378,0.169499 0.3596677,0.169499 0.223242,0 0.3403751,-0.146072 0.064768,-0.07855 0.1074869,-0.235645 h 0.4203014 q -0.055122,0.332107 -0.2811196,0.540191 z"
         id="path8075" />
      <path
         d="M 11.381006,13.823038 V 12.91629 h -0.79375 v 0.906748 h -0.420301 v -2.031227 h 0.420301 v 0.774457 h 0.79375 v -0.774457 h 0.421679 v 2.031227 z"
         id="path8077" />
    </g>
    <g
       aria-label="TRIG"
       id="text7978"
       style="font-weight:bold;font-size:2.82222px;font-family:Helvetica;-inkscape-font-specification:'Helvetica Bold';letter-spacing:0.079375px;fill:#382d30;stroke-width:0.2">
      <path
         d="m 5.9189149,30.294419 v 0.359667 H 5.3112005 v 1.671559 H 4.884009 V 30.654086 H 4.2735386 v -0.359667 z"
         id="path8052" />
      <path
         d="M 7.0580715,31.52914 H 6.6198557 v 0.796505 H 6.2050665 v -2.031226 h 0.9963209 q 0.2135957,0.0041 0.3279728,0.05236 0.1157551,0.04823 0.1956813,0.141938 0.066146,0.07717 0.1047308,0.170877 0.038585,0.09371 0.038585,0.213595 0,0.144694 -0.073036,0.285254 -0.073036,0.139182 -0.2411565,0.197059 0.1405598,0.0565 0.1984373,0.161231 0.059256,0.103352 0.059256,0.316948 v 0.136426 q 0,0.139182 0.011024,0.188791 0.016536,0.07855 0.07717,0.115755 v 0.05099 H 7.4328976 q -0.019293,-0.06752 -0.027561,-0.108864 -0.016536,-0.08544 -0.017914,-0.175011 l -0.00276,-0.188791 q -0.00276,-0.194304 -0.071658,-0.259071 -0.067524,-0.06477 -0.2549369,-0.06477 z m 0.257693,-0.369314 q 0.1267794,-0.05788 0.1267794,-0.228754 0,-0.184657 -0.1226453,-0.248047 -0.068902,-0.03583 -0.2067056,-0.03583 H 6.6198557 v 0.545703 h 0.480935 q 0.1433158,0 0.2149738,-0.03307 z"
         id="path8054" />
      <path
         d="m 8.2798392,30.294419 h 0.4216794 v 2.031226 H 8.2798392 Z"
         id="path8056" />
      <path
         d="m 10.422136,32.276036 q -0.16812,0.103353 -0.413411,0.103353 -0.4037649,0 -0.6614579,-0.279742 -0.2687172,-0.281119 -0.2687172,-0.768944 0,-0.493338 0.2714733,-0.790994 0.2714733,-0.297656 0.7179578,-0.297656 0.387228,0 0.621494,0.19706 0.235645,0.195681 0.270096,0.489203 h -0.417546 q -0.04823,-0.208084 -0.235644,-0.290766 -0.104731,-0.04547 -0.232888,-0.04547 -0.2452909,0 -0.4037652,0.186035 -0.1570962,0.184657 -0.1570962,0.556727 0,0.374826 0.1708766,0.530544 0.1708766,0.155718 0.3886068,0.155718 0.213595,0 0.350021,-0.122645 0.136426,-0.124023 0.168121,-0.323839 h -0.469911 v -0.338997 h 0.846115 v 1.090027 h -0.28112 l -0.04272,-0.253558 q -0.122645,0.144694 -0.220486,0.203949 z"
         id="path8058" />
    </g>
    <g
       aria-label="GATE"
       id="text7982"
       style="font-weight:bold;font-size:2.82222px;font-family:Helvetica;-inkscape-font-specification:'Helvetica Bold';letter-spacing:0.079375px;fill:#382d30;stroke-width:0.2">
      <path
         d="m 5.2448068,49.703843 q -0.1681205,0.103353 -0.4134111,0.103353 -0.4037649,0 -0.6614579,-0.279742 -0.2687172,-0.281119 -0.2687172,-0.768945 0,-0.493337 0.2714733,-0.790993 0.2714733,-0.297656 0.7179574,-0.297656 0.3872284,0 0.6214947,0.197059 0.2356444,0.195682 0.2700953,0.489204 H 5.364696 q -0.048231,-0.208084 -0.2356443,-0.290766 -0.1047308,-0.04547 -0.2328883,-0.04547 -0.2452906,0 -0.4037649,0.186035 -0.1570962,0.184657 -0.1570962,0.556727 0,0.374826 0.1708766,0.530544 0.1708766,0.155718 0.3886065,0.155718 0.2135957,0 0.3500214,-0.122645 0.1364257,-0.124024 0.1681205,-0.323839 H 4.9430167 v -0.338997 h 0.8461148 v 1.090027 H 5.5080119 l -0.042719,-0.253559 q -0.1226453,0.144694 -0.2204859,0.20395 z"
         id="path8035" />
      <path
         d="M 7.3610625,49.335907 H 6.6127883 l -0.1405597,0.417545 h -0.443728 l 0.7248475,-2.031226 h 0.479557 l 0.7193354,2.031226 H 7.491976 Z M 7.2425513,48.985886 6.9889925,48.186624 6.7271654,48.985886 Z"
         id="path8037" />
      <path
         d="m 9.510604,47.722226 v 0.359667 H 8.9028897 v 1.671559 H 8.4756981 V 48.081893 H 7.8652277 v -0.359667 z"
         id="path8039" />
      <path
         d="m 11.200976,48.865996 h -0.986675 v 0.522276 h 1.124478 v 0.36518 H 9.7995118 V 47.722226 H 11.28917 v 0.359667 h -1.074869 v 0.431326 h 0.986675 z"
         id="path8041" />
    </g>
    <g
       aria-label="PITCH"
       id="text8009"
       style="font-weight:bold;font-size:2.82222px;font-family:Helvetica;-inkscape-font-specification:'Helvetica Bold';letter-spacing:0.0529167px;fill:#382d30;stroke-width:0.2">
      <path
         d="M 4.290319,68.592707 H 3.8589934 v 0.73036 H 3.437314 V 67.29184 h 0.8846998 q 0.3059243,0 0.4878252,0.157096 0.1819009,0.157096 0.1819009,0.486447 0,0.359668 -0.1819009,0.508496 -0.1819009,0.148828 -0.51952,0.148828 z M 4.4887563,68.16965 q 0.082682,-0.07304 0.082682,-0.231511 0,-0.158474 -0.08406,-0.225998 -0.082682,-0.06752 -0.2328883,-0.06752 H 3.8589934 v 0.598069 H 4.25449 q 0.1502061,0 0.2342663,-0.07304 z"
         id="path8090" />
      <path
         d="M 5.3808266,67.29184 H 5.802506 v 2.031227 H 5.3808266 Z"
         id="path8092" />
      <path
         d="m 7.8286301,67.29184 v 0.359668 H 7.2209157 v 1.671559 H 6.7937242 V 67.651508 H 6.1832537 V 67.29184 Z"
         id="path8094" />
      <path
         d="m 9.5627521,69.171483 q -0.2273761,0.208083 -0.5815317,0.208083 -0.4382158,0 -0.6890185,-0.281119 -0.2508028,-0.282498 -0.2508028,-0.774457 0,-0.531923 0.2852537,-0.819932 0.2480467,-0.250803 0.631141,-0.250803 0.5126298,0 0.7496522,0.336241 0.1309135,0.188791 0.1405598,0.37896 H 9.4235704 Q 9.3822293,67.822384 9.3174615,67.74797 9.2017064,67.615679 8.9743303,67.615679 q -0.2315103,0 -0.3651799,0.187413 -0.1336696,0.186035 -0.1336696,0.527788 0,0.341753 0.1405598,0.51263 0.1419378,0.169498 0.3596677,0.169498 0.223242,0 0.3403752,-0.146072 0.064768,-0.07855 0.1074869,-0.235644 h 0.4203013 q -0.055121,0.332107 -0.2811196,0.540191 z"
         id="path8096" />
      <path
         d="m 11.381005,69.323067 v -0.906749 h -0.793749 v 0.906749 H 10.166955 V 67.29184 h 0.420301 v 0.774457 h 0.793749 V 67.29184 h 0.42168 v 2.031227 z"
         id="path8098" />
    </g>
    <g
       aria-label="TRIG"
       id="text8013"
       style="font-weight:bold;font-size:2.82222px;font-family:Helvetica;-inkscape-font-specification:'Helvetica Bold';letter-spacing:0.079375px;fill:#382d30;stroke-width:0.2">
      <path
         d="m 5.9189145,85.794442 v 0.359667 H 5.3112001 v 1.671559 H 4.8840086 V 86.154109 H 4.2735381 v -0.359667 z"
         id="path8111" />
      <path
         d="M 7.058071,87.029163 H 6.6198552 v 0.796505 H 6.205066 v -2.031226 h 0.9963209 q 0.2135958,0.0041 0.3279728,0.05236 0.1157552,0.04823 0.1956813,0.141938 0.066146,0.07717 0.1047308,0.170876 0.038585,0.09371 0.038585,0.213596 0,0.144694 -0.073036,0.285254 -0.073036,0.139182 -0.2411565,0.197059 0.1405598,0.0565 0.1984374,0.161231 0.059256,0.103352 0.059256,0.316948 v 0.136426 q 0,0.139182 0.011024,0.188791 0.016536,0.07855 0.07717,0.115755 v 0.05099 H 7.4328971 q -0.019292,-0.06752 -0.027561,-0.108865 -0.016536,-0.08544 -0.017915,-0.17501 l -0.00276,-0.188791 q -0.00276,-0.194304 -0.071658,-0.259071 -0.067524,-0.06477 -0.2549369,-0.06477 z m 0.257693,-0.369314 q 0.1267794,-0.05788 0.1267794,-0.228754 0,-0.184657 -0.1226453,-0.248047 -0.068902,-0.03583 -0.2067056,-0.03583 H 6.6198552 v 0.545703 h 0.480935 q 0.1433158,0 0.2149738,-0.03307 z"
         id="path8113" />
      <path
         d="m 8.2798387,85.794442 h 0.4216794 v 2.031226 H 8.2798387 Z"
         id="path8115" />
      <path
         d="m 10.422136,87.776059 q -0.168121,0.103353 -0.413412,0.103353 -0.4037644,0 -0.6614574,-0.279742 -0.2687172,-0.281119 -0.2687172,-0.768944 0,-0.493338 0.2714733,-0.790994 0.2714733,-0.297656 0.7179573,-0.297656 0.387229,0 0.621495,0.197059 0.235644,0.195682 0.270095,0.489204 h -0.417545 q -0.04823,-0.208084 -0.235644,-0.290766 -0.104731,-0.04548 -0.232889,-0.04548 -0.2452904,0 -0.4037647,0.186035 -0.1570962,0.184657 -0.1570962,0.556727 0,0.374826 0.1708766,0.530544 0.1708766,0.155718 0.3886063,0.155718 0.213596,0 0.350022,-0.122645 0.136425,-0.124024 0.16812,-0.323839 h -0.469911 v -0.338997 h 0.846115 v 1.090027 h -0.281119 l -0.04272,-0.253559 q -0.122646,0.144694 -0.220486,0.20395 z"
         id="path8117" />
    </g>
    <g
       aria-label="GATE"
       id="text8017"
       style="font-weight:bold;font-size:2.82222px;font-family:Helvetica;-inkscape-font-specification:'Helvetica Bold';letter-spacing:0.079375px;fill:#382d30;stroke-width:0.2">
      <path
         d="m 5.2448063,105.20387 q -0.1681205,0.10335 -0.4134111,0.10335 -0.4037649,0 -0.6614579,-0.27974 -0.2687172,-0.28112 -0.2687172,-0.76894 0,-0.49334 0.2714733,-0.791 0.2714733,-0.29765 0.7179574,-0.29765 0.3872284,0 0.6214947,0.19706 0.2356444,0.19568 0.2700953,0.4892 H 5.3646956 q -0.048231,-0.20808 -0.2356444,-0.29077 -0.1047308,-0.0455 -0.2328883,-0.0455 -0.2452906,0 -0.4037649,0.18603 -0.1570962,0.18466 -0.1570962,0.55673 0,0.37483 0.1708766,0.53054 0.1708766,0.15572 0.3886065,0.15572 0.2135957,0 0.3500214,-0.12264 0.1364257,-0.12403 0.1681206,-0.32384 H 4.9430162 v -0.339 H 5.789131 v 1.09003 H 5.5080114 l -0.042719,-0.25356 q -0.1226453,0.14469 -0.220486,0.20395 z"
         id="path8128" />
      <path
         d="M 7.361062,104.83593 H 6.6127879 l -0.1405598,0.41755 h -0.443728 l 0.7248476,-2.03123 H 7.2329046 L 7.95224,105.25348 H 7.4919756 Z m -0.1185112,-0.35002 -0.2535588,-0.79926 -0.261827,0.79926 z"
         id="path8130" />
      <path
         d="m 9.5106036,103.22225 v 0.35967 H 8.9028892 v 1.67156 H 8.4756977 v -1.67156 H 7.8652272 v -0.35967 z"
         id="path8132" />
      <path
         d="m 11.200975,104.36602 h -0.986674 v 0.52228 h 1.124478 v 0.36518 H 9.7995113 v -2.03123 H 11.28917 v 0.35967 h -1.074869 v 0.43133 h 0.986674 z"
         id="path8134" />
    </g>
  </g>
</svg>
